<mxfile host="65bd71144e" pages="4">
    <diagram id="YXI9AaRVjHkQREpANZGk" name="Page-1">
        <mxGraphModel dx="972" dy="678" grid="1" gridSize="10" guides="1" tooltips="1" connect="1" arrows="1" fold="1" page="1" pageScale="1" pageWidth="850" pageHeight="1100" math="0" shadow="0">
            <root>
                <mxCell id="0"/>
                <mxCell id="1" parent="0"/>
                <mxCell id="htaSXcTO01vQ4aoNI97K-3" style="edgeStyle=orthogonalEdgeStyle;rounded=0;orthogonalLoop=1;jettySize=auto;html=1;exitX=0.5;exitY=1;exitDx=0;exitDy=0;entryX=0.5;entryY=0;entryDx=0;entryDy=0;" parent="1" source="htaSXcTO01vQ4aoNI97K-1" target="htaSXcTO01vQ4aoNI97K-2" edge="1">
                    <mxGeometry relative="1" as="geometry"/>
                </mxCell>
                <mxCell id="htaSXcTO01vQ4aoNI97K-1" value="Home&lt;br&gt;(Websidte Landing)" style="rounded=0;whiteSpace=wrap;html=1;" parent="1" vertex="1">
                    <mxGeometry x="60" y="30" width="120" height="60" as="geometry"/>
                </mxCell>
                <mxCell id="htaSXcTO01vQ4aoNI97K-9" style="edgeStyle=orthogonalEdgeStyle;rounded=0;orthogonalLoop=1;jettySize=auto;html=1;exitX=1;exitY=0.5;exitDx=0;exitDy=0;entryX=0;entryY=0.5;entryDx=0;entryDy=0;" parent="1" source="htaSXcTO01vQ4aoNI97K-2" target="htaSXcTO01vQ4aoNI97K-7" edge="1">
                    <mxGeometry relative="1" as="geometry"/>
                </mxCell>
                <mxCell id="htaSXcTO01vQ4aoNI97K-2" value="Login" style="rounded=0;whiteSpace=wrap;html=1;" parent="1" vertex="1">
                    <mxGeometry x="60" y="200" width="120" height="60" as="geometry"/>
                </mxCell>
                <mxCell id="htaSXcTO01vQ4aoNI97K-11" style="edgeStyle=orthogonalEdgeStyle;rounded=0;orthogonalLoop=1;jettySize=auto;html=1;exitX=1;exitY=0.5;exitDx=0;exitDy=0;entryX=0;entryY=0.5;entryDx=0;entryDy=0;" parent="1" source="htaSXcTO01vQ4aoNI97K-7" target="htaSXcTO01vQ4aoNI97K-12" edge="1">
                    <mxGeometry relative="1" as="geometry">
                        <mxPoint x="600" y="230" as="targetPoint"/>
                    </mxGeometry>
                </mxCell>
                <mxCell id="htaSXcTO01vQ4aoNI97K-13" value="Yes" style="edgeLabel;html=1;align=center;verticalAlign=middle;resizable=0;points=[];" parent="htaSXcTO01vQ4aoNI97K-11" vertex="1" connectable="0">
                    <mxGeometry x="-0.2857" y="-1" relative="1" as="geometry">
                        <mxPoint as="offset"/>
                    </mxGeometry>
                </mxCell>
                <mxCell id="htaSXcTO01vQ4aoNI97K-7" value="IsAdmin" style="rhombus;whiteSpace=wrap;html=1;" parent="1" vertex="1">
                    <mxGeometry x="300" y="190" width="80" height="80" as="geometry"/>
                </mxCell>
                <mxCell id="gk27j7Xs4f2Jg_OqA8mt-6" style="edgeStyle=orthogonalEdgeStyle;rounded=0;orthogonalLoop=1;jettySize=auto;html=1;exitX=0.5;exitY=1;exitDx=0;exitDy=0;entryX=0.5;entryY=0;entryDx=0;entryDy=0;" parent="1" source="htaSXcTO01vQ4aoNI97K-12" target="gk27j7Xs4f2Jg_OqA8mt-5" edge="1">
                    <mxGeometry relative="1" as="geometry"/>
                </mxCell>
                <mxCell id="htaSXcTO01vQ4aoNI97K-12" value="Admin Dashboard" style="rounded=0;whiteSpace=wrap;html=1;" parent="1" vertex="1">
                    <mxGeometry x="520" y="200" width="120" height="60" as="geometry"/>
                </mxCell>
                <mxCell id="htaSXcTO01vQ4aoNI97K-17" style="edgeStyle=orthogonalEdgeStyle;rounded=0;orthogonalLoop=1;jettySize=auto;html=1;exitX=0.5;exitY=1;exitDx=0;exitDy=0;" parent="1" source="htaSXcTO01vQ4aoNI97K-7" edge="1">
                    <mxGeometry relative="1" as="geometry">
                        <mxPoint x="340" y="350" as="targetPoint"/>
                        <mxPoint x="390" y="240" as="sourcePoint"/>
                    </mxGeometry>
                </mxCell>
                <mxCell id="htaSXcTO01vQ4aoNI97K-18" value="No" style="edgeLabel;html=1;align=center;verticalAlign=middle;resizable=0;points=[];" parent="htaSXcTO01vQ4aoNI97K-17" vertex="1" connectable="0">
                    <mxGeometry x="-0.2857" y="-1" relative="1" as="geometry">
                        <mxPoint as="offset"/>
                    </mxGeometry>
                </mxCell>
                <mxCell id="htaSXcTO01vQ4aoNI97K-21" style="edgeStyle=orthogonalEdgeStyle;rounded=0;orthogonalLoop=1;jettySize=auto;html=1;exitX=0.5;exitY=1;exitDx=0;exitDy=0;entryX=0.5;entryY=0;entryDx=0;entryDy=0;" parent="1" source="htaSXcTO01vQ4aoNI97K-19" target="htaSXcTO01vQ4aoNI97K-20" edge="1">
                    <mxGeometry relative="1" as="geometry"/>
                </mxCell>
                <mxCell id="htaSXcTO01vQ4aoNI97K-23" style="edgeStyle=orthogonalEdgeStyle;rounded=0;orthogonalLoop=1;jettySize=auto;html=1;exitX=0.5;exitY=1;exitDx=0;exitDy=0;entryX=0.5;entryY=0;entryDx=0;entryDy=0;" parent="1" source="htaSXcTO01vQ4aoNI97K-19" target="htaSXcTO01vQ4aoNI97K-22" edge="1">
                    <mxGeometry relative="1" as="geometry"/>
                </mxCell>
                <mxCell id="htaSXcTO01vQ4aoNI97K-25" style="edgeStyle=orthogonalEdgeStyle;rounded=0;orthogonalLoop=1;jettySize=auto;html=1;exitX=0.5;exitY=1;exitDx=0;exitDy=0;" parent="1" source="htaSXcTO01vQ4aoNI97K-19" target="htaSXcTO01vQ4aoNI97K-24" edge="1">
                    <mxGeometry relative="1" as="geometry"/>
                </mxCell>
                <mxCell id="htaSXcTO01vQ4aoNI97K-27" style="edgeStyle=orthogonalEdgeStyle;rounded=0;orthogonalLoop=1;jettySize=auto;html=1;exitX=0.5;exitY=1;exitDx=0;exitDy=0;" parent="1" source="htaSXcTO01vQ4aoNI97K-19" target="htaSXcTO01vQ4aoNI97K-26" edge="1">
                    <mxGeometry relative="1" as="geometry"/>
                </mxCell>
                <mxCell id="gk27j7Xs4f2Jg_OqA8mt-2" style="edgeStyle=orthogonalEdgeStyle;rounded=0;orthogonalLoop=1;jettySize=auto;html=1;exitX=0.5;exitY=1;exitDx=0;exitDy=0;entryX=0.5;entryY=0;entryDx=0;entryDy=0;" parent="1" source="htaSXcTO01vQ4aoNI97K-19" target="gk27j7Xs4f2Jg_OqA8mt-1" edge="1">
                    <mxGeometry relative="1" as="geometry"/>
                </mxCell>
                <mxCell id="7" style="edgeStyle=orthogonalEdgeStyle;rounded=0;orthogonalLoop=1;jettySize=auto;html=1;exitX=0.5;exitY=1;exitDx=0;exitDy=0;entryX=0.5;entryY=0;entryDx=0;entryDy=0;" parent="1" source="htaSXcTO01vQ4aoNI97K-19" target="6" edge="1">
                    <mxGeometry relative="1" as="geometry"/>
                </mxCell>
                <mxCell id="htaSXcTO01vQ4aoNI97K-19" value="User Account&lt;br&gt;(User Landing Page)" style="rounded=0;whiteSpace=wrap;html=1;" parent="1" vertex="1">
                    <mxGeometry x="280" y="350" width="120" height="60" as="geometry"/>
                </mxCell>
                <mxCell id="htaSXcTO01vQ4aoNI97K-20" value="Upcoming Games and Voting options" style="rounded=0;whiteSpace=wrap;html=1;" parent="1" vertex="1">
                    <mxGeometry x="20" y="470" width="120" height="60" as="geometry"/>
                </mxCell>
                <mxCell id="htaSXcTO01vQ4aoNI97K-22" value="Profile" style="rounded=0;whiteSpace=wrap;html=1;" parent="1" vertex="1">
                    <mxGeometry x="150" y="470" width="120" height="60" as="geometry"/>
                </mxCell>
                <mxCell id="gk27j7Xs4f2Jg_OqA8mt-4" style="edgeStyle=orthogonalEdgeStyle;rounded=0;orthogonalLoop=1;jettySize=auto;html=1;exitX=0.5;exitY=1;exitDx=0;exitDy=0;entryX=0.5;entryY=0;entryDx=0;entryDy=0;" parent="1" source="htaSXcTO01vQ4aoNI97K-24" target="gk27j7Xs4f2Jg_OqA8mt-3" edge="1">
                    <mxGeometry relative="1" as="geometry"/>
                </mxCell>
                <mxCell id="htaSXcTO01vQ4aoNI97K-24" value="Point Shop" style="rounded=0;whiteSpace=wrap;html=1;" parent="1" vertex="1">
                    <mxGeometry x="540" y="470" width="120" height="60" as="geometry"/>
                </mxCell>
                <mxCell id="htaSXcTO01vQ4aoNI97K-26" value="Leaderboard" style="rounded=0;whiteSpace=wrap;html=1;" parent="1" vertex="1">
                    <mxGeometry x="410" y="470" width="120" height="60" as="geometry"/>
                </mxCell>
                <mxCell id="gk27j7Xs4f2Jg_OqA8mt-1" value="Badges Earned" style="rounded=0;whiteSpace=wrap;html=1;" parent="1" vertex="1">
                    <mxGeometry x="280" y="470" width="120" height="60" as="geometry"/>
                </mxCell>
                <mxCell id="gk27j7Xs4f2Jg_OqA8mt-3" value="My Orders" style="rounded=0;whiteSpace=wrap;html=1;" parent="1" vertex="1">
                    <mxGeometry x="540" y="560" width="120" height="60" as="geometry"/>
                </mxCell>
                <mxCell id="gk27j7Xs4f2Jg_OqA8mt-5" value="Post Game Final Scores" style="rounded=0;whiteSpace=wrap;html=1;" parent="1" vertex="1">
                    <mxGeometry x="520" y="300" width="120" height="60" as="geometry"/>
                </mxCell>
                <mxCell id="5" style="edgeStyle=orthogonalEdgeStyle;rounded=0;orthogonalLoop=1;jettySize=auto;html=1;exitX=0;exitY=0.5;exitDx=0;exitDy=0;entryX=1;entryY=0.5;entryDx=0;entryDy=0;" parent="1" source="2" target="htaSXcTO01vQ4aoNI97K-19" edge="1">
                    <mxGeometry relative="1" as="geometry"/>
                </mxCell>
                <mxCell id="2" value="Update News" style="rounded=0;whiteSpace=wrap;html=1;" parent="1" vertex="1">
                    <mxGeometry x="700" y="350" width="120" height="60" as="geometry"/>
                </mxCell>
                <mxCell id="6" value="Standings" style="rounded=0;whiteSpace=wrap;html=1;" parent="1" vertex="1">
                    <mxGeometry x="670" y="470" width="120" height="60" as="geometry"/>
                </mxCell>
            </root>
        </mxGraphModel>
    </diagram>
    <diagram id="3dJrFi3je7JROHONBaTF" name="Page-2">
        <mxGraphModel dx="972" dy="678" grid="1" gridSize="10" guides="1" tooltips="1" connect="1" arrows="1" fold="1" page="1" pageScale="1" pageWidth="850" pageHeight="1100" math="0" shadow="0">
            <root>
                <mxCell id="gcWCGDzMf7rFrOfqclU7-0"/>
                <mxCell id="gcWCGDzMf7rFrOfqclU7-1" parent="gcWCGDzMf7rFrOfqclU7-0"/>
            </root>
        </mxGraphModel>
    </diagram>
    <diagram name="EERD" id="Jsh1hvVN0DmNmxNrDgxn">
        <mxGraphModel dx="972" dy="1778" grid="1" gridSize="10" guides="1" tooltips="1" connect="1" arrows="1" fold="1" page="1" pageScale="1" pageWidth="850" pageHeight="1100" math="0" shadow="0" extFonts="Permanent Marker^https://fonts.googleapis.com/css?family=Permanent+Marker">
            <root>
                <mxCell id="0"/>
                <mxCell id="1" parent="0"/>
                <mxCell id="QpFSuCOk6u6ckfQCm7wt-3" value="username" style="ellipse;whiteSpace=wrap;html=1;" parent="1" vertex="1">
                    <mxGeometry x="560" y="20" width="100" height="40" as="geometry"/>
                </mxCell>
                <mxCell id="QpFSuCOk6u6ckfQCm7wt-4" value="&lt;u&gt;email&lt;/u&gt;" style="ellipse;whiteSpace=wrap;html=1;" parent="1" vertex="1">
                    <mxGeometry x="441" y="80" width="100" height="40" as="geometry"/>
                </mxCell>
                <mxCell id="ZrlskQMUJPXPYAdlO2X_-2" style="rounded=0;orthogonalLoop=1;jettySize=auto;html=1;exitX=0;exitY=0;exitDx=0;exitDy=0;entryX=0.5;entryY=1;entryDx=0;entryDy=0;endArrow=none;endFill=0;" parent="1" source="QpFSuCOk6u6ckfQCm7wt-14" target="QpFSuCOk6u6ckfQCm7wt-4" edge="1">
                    <mxGeometry relative="1" as="geometry"/>
                </mxCell>
                <mxCell id="ZrlskQMUJPXPYAdlO2X_-3" style="edgeStyle=none;rounded=0;orthogonalLoop=1;jettySize=auto;html=1;exitX=0.5;exitY=0;exitDx=0;exitDy=0;entryX=0.5;entryY=1;entryDx=0;entryDy=0;endArrow=none;endFill=0;" parent="1" source="QpFSuCOk6u6ckfQCm7wt-14" target="QpFSuCOk6u6ckfQCm7wt-3" edge="1">
                    <mxGeometry relative="1" as="geometry"/>
                </mxCell>
                <mxCell id="ZrlskQMUJPXPYAdlO2X_-4" style="edgeStyle=none;rounded=0;orthogonalLoop=1;jettySize=auto;html=1;exitX=1;exitY=0;exitDx=0;exitDy=0;endArrow=none;endFill=0;" parent="1" source="QpFSuCOk6u6ckfQCm7wt-14" target="QpFSuCOk6u6ckfQCm7wt-16" edge="1">
                    <mxGeometry relative="1" as="geometry"/>
                </mxCell>
                <mxCell id="1BAFGmvLoh52OS55wQiA-8" style="edgeStyle=none;rounded=0;orthogonalLoop=1;jettySize=auto;html=1;exitX=1;exitY=0.5;exitDx=0;exitDy=0;entryX=0;entryY=1;entryDx=0;entryDy=0;endArrow=none;endFill=0;" parent="1" source="QpFSuCOk6u6ckfQCm7wt-14" target="1BAFGmvLoh52OS55wQiA-7" edge="1">
                    <mxGeometry relative="1" as="geometry"/>
                </mxCell>
                <mxCell id="QpFSuCOk6u6ckfQCm7wt-14" value="&lt;div&gt;Account&lt;/div&gt;" style="rounded=0;whiteSpace=wrap;html=1;fillColor=#ffe6cc;strokeColor=#d79b00;" parent="1" vertex="1">
                    <mxGeometry x="570" y="160" width="100" height="40" as="geometry"/>
                </mxCell>
                <mxCell id="QpFSuCOk6u6ckfQCm7wt-16" value="password" style="ellipse;whiteSpace=wrap;html=1;" parent="1" vertex="1">
                    <mxGeometry x="665" y="30" width="100" height="40" as="geometry"/>
                </mxCell>
                <mxCell id="ZrlskQMUJPXPYAdlO2X_-10" style="edgeStyle=none;rounded=0;orthogonalLoop=1;jettySize=auto;html=1;exitX=0.5;exitY=0;exitDx=0;exitDy=0;entryX=0;entryY=1;entryDx=0;entryDy=0;endArrow=none;endFill=0;" parent="1" source="QpFSuCOk6u6ckfQCm7wt-34" target="ZrlskQMUJPXPYAdlO2X_-8" edge="1">
                    <mxGeometry relative="1" as="geometry"/>
                </mxCell>
                <mxCell id="QpFSuCOk6u6ckfQCm7wt-34" value="User" style="rounded=0;whiteSpace=wrap;html=1;" parent="1" vertex="1">
                    <mxGeometry x="450" y="360" width="100" height="40" as="geometry"/>
                </mxCell>
                <mxCell id="ZrlskQMUJPXPYAdlO2X_-11" style="edgeStyle=none;rounded=0;orthogonalLoop=1;jettySize=auto;html=1;exitX=0.5;exitY=0;exitDx=0;exitDy=0;entryX=1;entryY=1;entryDx=0;entryDy=0;endArrow=none;endFill=0;" parent="1" source="QpFSuCOk6u6ckfQCm7wt-36" target="ZrlskQMUJPXPYAdlO2X_-8" edge="1">
                    <mxGeometry relative="1" as="geometry"/>
                </mxCell>
                <mxCell id="QpFSuCOk6u6ckfQCm7wt-36" value="Admin" style="rounded=0;whiteSpace=wrap;html=1;" parent="1" vertex="1">
                    <mxGeometry x="690" y="360" width="100" height="40" as="geometry"/>
                </mxCell>
                <mxCell id="ZrlskQMUJPXPYAdlO2X_-35" style="edgeStyle=none;rounded=0;orthogonalLoop=1;jettySize=auto;html=1;entryX=1;entryY=1;entryDx=0;entryDy=0;endArrow=none;endFill=0;" parent="1" source="QpFSuCOk6u6ckfQCm7wt-45" target="ZrlskQMUJPXPYAdlO2X_-33" edge="1">
                    <mxGeometry relative="1" as="geometry"/>
                </mxCell>
                <mxCell id="fxBYiPj-qEyAgA5J037j-4" style="rounded=0;orthogonalLoop=1;jettySize=auto;html=1;exitX=0.75;exitY=0;exitDx=0;exitDy=0;entryX=0;entryY=1;entryDx=0;entryDy=0;endArrow=none;endFill=0;" parent="1" source="QpFSuCOk6u6ckfQCm7wt-45" target="fxBYiPj-qEyAgA5J037j-2" edge="1">
                    <mxGeometry relative="1" as="geometry"/>
                </mxCell>
                <mxCell id="rXsFG1wBV2ONbdxPozWu-8" style="edgeStyle=orthogonalEdgeStyle;rounded=0;orthogonalLoop=1;jettySize=auto;html=1;exitX=0.5;exitY=0;exitDx=0;exitDy=0;entryX=0.25;entryY=1;entryDx=0;entryDy=0;endArrow=none;endFill=0;" parent="1" source="QpFSuCOk6u6ckfQCm7wt-45" target="rXsFG1wBV2ONbdxPozWu-5" edge="1">
                    <mxGeometry relative="1" as="geometry">
                        <Array as="points">
                            <mxPoint x="620" y="290"/>
                            <mxPoint x="955" y="290"/>
                        </Array>
                    </mxGeometry>
                </mxCell>
                <mxCell id="QpFSuCOk6u6ckfQCm7wt-45" value="Games" style="rounded=0;whiteSpace=wrap;html=1;fillColor=#f8cecc;strokeColor=#b85450;" parent="1" vertex="1">
                    <mxGeometry x="570" y="560" width="100" height="40" as="geometry"/>
                </mxCell>
                <mxCell id="QpFSuCOk6u6ckfQCm7wt-47" value="&lt;u&gt;game_id&lt;/u&gt;" style="ellipse;whiteSpace=wrap;html=1;" parent="1" vertex="1">
                    <mxGeometry x="425" y="570" width="100" height="40" as="geometry"/>
                </mxCell>
                <mxCell id="QpFSuCOk6u6ckfQCm7wt-48" value="game_visiting" style="ellipse;whiteSpace=wrap;html=1;" parent="1" vertex="1">
                    <mxGeometry x="510" y="690" width="100" height="40" as="geometry"/>
                </mxCell>
                <mxCell id="QpFSuCOk6u6ckfQCm7wt-50" value="game_home" style="ellipse;whiteSpace=wrap;html=1;" parent="1" vertex="1">
                    <mxGeometry x="630" y="690" width="100" height="40" as="geometry"/>
                </mxCell>
                <mxCell id="QpFSuCOk6u6ckfQCm7wt-51" value="" style="endArrow=none;html=1;exitX=1;exitY=0;exitDx=0;exitDy=0;entryX=0;entryY=1;entryDx=0;entryDy=0;" parent="1" source="QpFSuCOk6u6ckfQCm7wt-47" target="QpFSuCOk6u6ckfQCm7wt-45" edge="1">
                    <mxGeometry width="50" height="50" relative="1" as="geometry">
                        <mxPoint x="590" y="255" as="sourcePoint"/>
                        <mxPoint x="660" y="237.5" as="targetPoint"/>
                    </mxGeometry>
                </mxCell>
                <mxCell id="QpFSuCOk6u6ckfQCm7wt-52" value="" style="endArrow=none;html=1;exitX=0.5;exitY=0;exitDx=0;exitDy=0;entryX=0.25;entryY=1;entryDx=0;entryDy=0;" parent="1" source="QpFSuCOk6u6ckfQCm7wt-48" target="QpFSuCOk6u6ckfQCm7wt-45" edge="1">
                    <mxGeometry width="50" height="50" relative="1" as="geometry">
                        <mxPoint x="545.3553390593274" y="657.3223304703365" as="sourcePoint"/>
                        <mxPoint x="580" y="630" as="targetPoint"/>
                    </mxGeometry>
                </mxCell>
                <mxCell id="QpFSuCOk6u6ckfQCm7wt-53" value="" style="endArrow=none;html=1;exitX=0.5;exitY=0;exitDx=0;exitDy=0;entryX=0.75;entryY=1;entryDx=0;entryDy=0;" parent="1" source="QpFSuCOk6u6ckfQCm7wt-50" target="QpFSuCOk6u6ckfQCm7wt-45" edge="1">
                    <mxGeometry width="50" height="50" relative="1" as="geometry">
                        <mxPoint x="555.3553390593274" y="667.3223304703365" as="sourcePoint"/>
                        <mxPoint x="590" y="640" as="targetPoint"/>
                    </mxGeometry>
                </mxCell>
                <mxCell id="QpFSuCOk6u6ckfQCm7wt-54" value="game_score" style="ellipse;whiteSpace=wrap;html=1;" parent="1" vertex="1">
                    <mxGeometry x="690" y="640" width="100" height="40" as="geometry"/>
                </mxCell>
                <mxCell id="QpFSuCOk6u6ckfQCm7wt-56" value="" style="endArrow=none;html=1;exitX=0;exitY=0;exitDx=0;exitDy=0;entryX=1;entryY=1;entryDx=0;entryDy=0;" parent="1" source="QpFSuCOk6u6ckfQCm7wt-54" target="QpFSuCOk6u6ckfQCm7wt-45" edge="1">
                    <mxGeometry width="50" height="50" relative="1" as="geometry">
                        <mxPoint x="690" y="700" as="sourcePoint"/>
                        <mxPoint x="655" y="630" as="targetPoint"/>
                    </mxGeometry>
                </mxCell>
                <mxCell id="ZrlskQMUJPXPYAdlO2X_-9" style="edgeStyle=none;rounded=0;orthogonalLoop=1;jettySize=auto;html=1;exitX=0.5;exitY=0;exitDx=0;exitDy=0;entryX=0.5;entryY=1;entryDx=0;entryDy=0;endArrow=none;endFill=0;shape=link;" parent="1" source="ZrlskQMUJPXPYAdlO2X_-8" target="QpFSuCOk6u6ckfQCm7wt-14" edge="1">
                    <mxGeometry relative="1" as="geometry"/>
                </mxCell>
                <mxCell id="ZrlskQMUJPXPYAdlO2X_-8" value="o" style="ellipse;whiteSpace=wrap;html=1;aspect=fixed;" parent="1" vertex="1">
                    <mxGeometry x="605" y="250" width="30" height="30" as="geometry"/>
                </mxCell>
                <mxCell id="ZrlskQMUJPXPYAdlO2X_-20" value="Teams" style="rounded=0;whiteSpace=wrap;html=1;" parent="1" vertex="1">
                    <mxGeometry x="920" y="560" width="100" height="40" as="geometry"/>
                </mxCell>
                <mxCell id="ZrlskQMUJPXPYAdlO2X_-24" value="Players" style="rounded=0;whiteSpace=wrap;html=1;" parent="1" vertex="1">
                    <mxGeometry x="920" y="420" width="100" height="40" as="geometry"/>
                </mxCell>
                <mxCell id="ZrlskQMUJPXPYAdlO2X_-34" style="edgeStyle=none;rounded=0;orthogonalLoop=1;jettySize=auto;html=1;exitX=0.5;exitY=0;exitDx=0;exitDy=0;entryX=0.5;entryY=1;entryDx=0;entryDy=0;endArrow=none;endFill=0;" parent="1" source="ZrlskQMUJPXPYAdlO2X_-33" target="QpFSuCOk6u6ckfQCm7wt-34" edge="1">
                    <mxGeometry relative="1" as="geometry"/>
                </mxCell>
                <mxCell id="ZrlskQMUJPXPYAdlO2X_-33" value="Votes" style="rhombus;whiteSpace=wrap;html=1;" parent="1" vertex="1">
                    <mxGeometry x="460" y="450" width="80" height="60" as="geometry"/>
                </mxCell>
                <mxCell id="fxBYiPj-qEyAgA5J037j-3" style="edgeStyle=orthogonalEdgeStyle;rounded=0;orthogonalLoop=1;jettySize=auto;html=1;exitX=0.5;exitY=0;exitDx=0;exitDy=0;entryX=0.5;entryY=1;entryDx=0;entryDy=0;endArrow=none;endFill=0;" parent="1" source="fxBYiPj-qEyAgA5J037j-2" target="QpFSuCOk6u6ckfQCm7wt-36" edge="1">
                    <mxGeometry relative="1" as="geometry"/>
                </mxCell>
                <mxCell id="fxBYiPj-qEyAgA5J037j-2" value="Edits" style="rhombus;whiteSpace=wrap;html=1;" parent="1" vertex="1">
                    <mxGeometry x="700" y="450" width="80" height="60" as="geometry"/>
                </mxCell>
                <mxCell id="1BAFGmvLoh52OS55wQiA-6" style="rounded=0;orthogonalLoop=1;jettySize=auto;html=1;exitX=0.25;exitY=0;exitDx=0;exitDy=0;entryX=1;entryY=0.5;entryDx=0;entryDy=0;endArrow=none;endFill=0;" parent="1" source="QpFSuCOk6u6ckfQCm7wt-14" target="1BAFGmvLoh52OS55wQiA-5" edge="1">
                    <mxGeometry relative="1" as="geometry"/>
                </mxCell>
                <mxCell id="WpMRGLQhzF-ZAPX9bkS3-1" value="Consists of" style="rhombus;whiteSpace=wrap;html=1;" parent="1" vertex="1">
                    <mxGeometry x="760" y="550" width="80" height="60" as="geometry"/>
                </mxCell>
                <mxCell id="WpMRGLQhzF-ZAPX9bkS3-3" value="" style="endArrow=none;html=1;entryX=0;entryY=0.5;entryDx=0;entryDy=0;exitX=1;exitY=0.5;exitDx=0;exitDy=0;shape=link;" parent="1" source="QpFSuCOk6u6ckfQCm7wt-45" target="WpMRGLQhzF-ZAPX9bkS3-1" edge="1">
                    <mxGeometry width="50" height="50" relative="1" as="geometry">
                        <mxPoint x="600" y="430" as="sourcePoint"/>
                        <mxPoint x="650" y="380" as="targetPoint"/>
                    </mxGeometry>
                </mxCell>
                <mxCell id="1BAFGmvLoh52OS55wQiA-5" value="profile_picture" style="ellipse;whiteSpace=wrap;html=1;" parent="1" vertex="1">
                    <mxGeometry x="450" y="30" width="100" height="40" as="geometry"/>
                </mxCell>
                <mxCell id="WpMRGLQhzF-ZAPX9bkS3-4" value="" style="endArrow=none;html=1;entryX=0;entryY=0.5;entryDx=0;entryDy=0;exitX=1;exitY=0.5;exitDx=0;exitDy=0;" parent="1" source="WpMRGLQhzF-ZAPX9bkS3-1" target="ZrlskQMUJPXPYAdlO2X_-20" edge="1">
                    <mxGeometry width="50" height="50" relative="1" as="geometry">
                        <mxPoint x="680" y="590" as="sourcePoint"/>
                        <mxPoint x="780" y="590" as="targetPoint"/>
                    </mxGeometry>
                </mxCell>
                <mxCell id="WpMRGLQhzF-ZAPX9bkS3-5" value="" style="endArrow=none;html=1;entryX=0.5;entryY=1;entryDx=0;entryDy=0;exitX=0.5;exitY=0;exitDx=0;exitDy=0;shape=link;" parent="1" source="ZrlskQMUJPXPYAdlO2X_-20" target="WpMRGLQhzF-ZAPX9bkS3-24" edge="1">
                    <mxGeometry width="50" height="50" relative="1" as="geometry">
                        <mxPoint x="850" y="590" as="sourcePoint"/>
                        <mxPoint x="930" y="590" as="targetPoint"/>
                    </mxGeometry>
                </mxCell>
                <mxCell id="1BAFGmvLoh52OS55wQiA-7" value="creation_date" style="ellipse;whiteSpace=wrap;html=1;" parent="1" vertex="1">
                    <mxGeometry x="770" y="107" width="100" height="40" as="geometry"/>
                </mxCell>
                <mxCell id="WpMRGLQhzF-ZAPX9bkS3-11" value="first_name" style="ellipse;whiteSpace=wrap;html=1;" parent="1" vertex="1">
                    <mxGeometry x="810" y="380" width="100" height="40" as="geometry"/>
                </mxCell>
                <mxCell id="WpMRGLQhzF-ZAPX9bkS3-12" value="last_name" style="ellipse;whiteSpace=wrap;html=1;" parent="1" vertex="1">
                    <mxGeometry x="860" y="330" width="100" height="40" as="geometry"/>
                </mxCell>
                <mxCell id="WpMRGLQhzF-ZAPX9bkS3-13" value="&lt;u&gt;player_id&lt;/u&gt;" style="ellipse;whiteSpace=wrap;html=1;" parent="1" vertex="1">
                    <mxGeometry x="980" y="330" width="100" height="40" as="geometry"/>
                </mxCell>
                <mxCell id="1BAFGmvLoh52OS55wQiA-9" value="" style="ellipse;whiteSpace=wrap;html=1;" parent="1" vertex="1">
                    <mxGeometry x="1030" y="380" width="100" height="40" as="geometry"/>
                </mxCell>
                <mxCell id="1BAFGmvLoh52OS55wQiA-10" value="player_stats" style="ellipse;whiteSpace=wrap;html=1;" parent="1" vertex="1">
                    <mxGeometry x="1036" y="385" width="88" height="30" as="geometry"/>
                </mxCell>
                <mxCell id="WpMRGLQhzF-ZAPX9bkS3-15" value="points" style="ellipse;whiteSpace=wrap;html=1;" parent="1" vertex="1">
                    <mxGeometry x="1124" y="330" width="100" height="40" as="geometry"/>
                </mxCell>
                <mxCell id="WpMRGLQhzF-ZAPX9bkS3-16" value="assists" style="ellipse;whiteSpace=wrap;html=1;" parent="1" vertex="1">
                    <mxGeometry x="1160" y="380" width="100" height="40" as="geometry"/>
                </mxCell>
                <mxCell id="WpMRGLQhzF-ZAPX9bkS3-17" value="rebounds" style="ellipse;whiteSpace=wrap;html=1;" parent="1" vertex="1">
                    <mxGeometry x="1130" y="430" width="100" height="40" as="geometry"/>
                </mxCell>
                <mxCell id="WpMRGLQhzF-ZAPX9bkS3-18" style="rounded=0;orthogonalLoop=1;jettySize=auto;html=1;entryX=0;entryY=1;entryDx=0;entryDy=0;endArrow=none;endFill=0;exitX=1;exitY=0;exitDx=0;exitDy=0;" parent="1" source="1BAFGmvLoh52OS55wQiA-9" target="WpMRGLQhzF-ZAPX9bkS3-15" edge="1">
                    <mxGeometry relative="1" as="geometry">
                        <mxPoint x="1120" y="380" as="sourcePoint"/>
                        <mxPoint x="750" y="390" as="targetPoint"/>
                    </mxGeometry>
                </mxCell>
                <mxCell id="WpMRGLQhzF-ZAPX9bkS3-19" style="rounded=0;orthogonalLoop=1;jettySize=auto;html=1;entryX=0;entryY=0.5;entryDx=0;entryDy=0;endArrow=none;endFill=0;" parent="1" target="WpMRGLQhzF-ZAPX9bkS3-16" edge="1">
                    <mxGeometry relative="1" as="geometry">
                        <mxPoint x="1130" y="400" as="sourcePoint"/>
                        <mxPoint x="1148.6446609406726" y="374.14213562373106" as="targetPoint"/>
                    </mxGeometry>
                </mxCell>
                <mxCell id="WpMRGLQhzF-ZAPX9bkS3-20" style="rounded=0;orthogonalLoop=1;jettySize=auto;html=1;exitX=1;exitY=1;exitDx=0;exitDy=0;entryX=0;entryY=0;entryDx=0;entryDy=0;endArrow=none;endFill=0;" parent="1" source="1BAFGmvLoh52OS55wQiA-9" target="WpMRGLQhzF-ZAPX9bkS3-17" edge="1">
                    <mxGeometry relative="1" as="geometry">
                        <mxPoint x="1131.1126983722083" y="409.3933982822018" as="sourcePoint"/>
                        <mxPoint x="1158.6446609406726" y="384.14213562373106" as="targetPoint"/>
                    </mxGeometry>
                </mxCell>
                <mxCell id="8wyXn0_WSblSLnr_gkN9-13" style="edgeStyle=none;rounded=0;orthogonalLoop=1;jettySize=auto;html=1;entryX=0.72;entryY=0.975;entryDx=0;entryDy=0;entryPerimeter=0;endArrow=none;endFill=0;" parent="1" target="8wyXn0_WSblSLnr_gkN9-12" edge="1">
                    <mxGeometry relative="1" as="geometry">
                        <mxPoint x="1260" y="-80" as="sourcePoint"/>
                    </mxGeometry>
                </mxCell>
                <mxCell id="1BAFGmvLoh52OS55wQiA-11" value="Point Shop Orders" style="rounded=0;whiteSpace=wrap;html=1;fillColor=#ffe6cc;strokeColor=#d79b00;" parent="1" vertex="1">
                    <mxGeometry x="960" y="-60" width="100" height="40" as="geometry"/>
                </mxCell>
                <mxCell id="WpMRGLQhzF-ZAPX9bkS3-21" style="rounded=0;orthogonalLoop=1;jettySize=auto;html=1;entryX=0;entryY=1;entryDx=0;entryDy=0;endArrow=none;endFill=0;" parent="1" source="ZrlskQMUJPXPYAdlO2X_-24" target="WpMRGLQhzF-ZAPX9bkS3-13" edge="1">
                    <mxGeometry relative="1" as="geometry">
                        <mxPoint x="1125.3553390593277" y="395.85786437626905" as="sourcePoint"/>
                        <mxPoint x="1148.6446609406723" y="374.1421356237312" as="targetPoint"/>
                    </mxGeometry>
                </mxCell>
                <mxCell id="WpMRGLQhzF-ZAPX9bkS3-22" style="rounded=0;orthogonalLoop=1;jettySize=auto;html=1;entryX=1;entryY=1;entryDx=0;entryDy=0;endArrow=none;endFill=0;" parent="1" source="ZrlskQMUJPXPYAdlO2X_-24" target="WpMRGLQhzF-ZAPX9bkS3-12" edge="1">
                    <mxGeometry relative="1" as="geometry">
                        <mxPoint x="1005" y="430" as="sourcePoint"/>
                        <mxPoint x="1004.6446609406728" y="374.14213562373095" as="targetPoint"/>
                    </mxGeometry>
                </mxCell>
                <mxCell id="WpMRGLQhzF-ZAPX9bkS3-23" style="rounded=0;orthogonalLoop=1;jettySize=auto;html=1;entryX=1;entryY=1;entryDx=0;entryDy=0;endArrow=none;endFill=0;exitX=0;exitY=0.25;exitDx=0;exitDy=0;" parent="1" source="ZrlskQMUJPXPYAdlO2X_-24" edge="1">
                    <mxGeometry relative="1" as="geometry">
                        <mxPoint x="1015" y="440" as="sourcePoint"/>
                        <mxPoint x="895.3553390593277" y="414.1421356237313" as="targetPoint"/>
                    </mxGeometry>
                </mxCell>
                <mxCell id="WpMRGLQhzF-ZAPX9bkS3-89" style="edgeStyle=none;rounded=0;orthogonalLoop=1;jettySize=auto;html=1;exitX=0.5;exitY=0;exitDx=0;exitDy=0;entryX=0.5;entryY=1;entryDx=0;entryDy=0;shape=link;" parent="1" source="WpMRGLQhzF-ZAPX9bkS3-24" target="ZrlskQMUJPXPYAdlO2X_-24" edge="1">
                    <mxGeometry relative="1" as="geometry"/>
                </mxCell>
                <mxCell id="WpMRGLQhzF-ZAPX9bkS3-24" value="Consists of" style="rhombus;whiteSpace=wrap;html=1;" parent="1" vertex="1">
                    <mxGeometry x="930" y="480" width="80" height="60" as="geometry"/>
                </mxCell>
                <mxCell id="WpMRGLQhzF-ZAPX9bkS3-25" style="rounded=0;orthogonalLoop=1;jettySize=auto;html=1;entryX=0;entryY=1;entryDx=0;entryDy=0;endArrow=none;endFill=0;exitX=1;exitY=0.25;exitDx=0;exitDy=0;" parent="1" source="ZrlskQMUJPXPYAdlO2X_-24" target="1BAFGmvLoh52OS55wQiA-9" edge="1">
                    <mxGeometry relative="1" as="geometry">
                        <mxPoint x="930" y="440" as="sourcePoint"/>
                        <mxPoint x="905.3553390593106" y="424.14213562372424" as="targetPoint"/>
                    </mxGeometry>
                </mxCell>
                <mxCell id="WpMRGLQhzF-ZAPX9bkS3-28" value="&lt;u&gt;team_name&lt;/u&gt;" style="ellipse;whiteSpace=wrap;html=1;" parent="1" vertex="1">
                    <mxGeometry x="810" y="610" width="100" height="40" as="geometry"/>
                </mxCell>
                <mxCell id="WpMRGLQhzF-ZAPX9bkS3-29" value="offensive_rating&lt;span style=&quot;color: rgba(0 , 0 , 0 , 0) ; font-family: monospace ; font-size: 0px&quot;&gt;%3CmxGraphModel%3E%3Croot%3E%3CmxCell%20id%3D%220%22%2F%3E%3CmxCell%20id%3D%221%22%20parent%3D%220%22%2F%3E%3CmxCell%20id%3D%222%22%20value%3D%22team_name%22%20style%3D%22ellipse%3BwhiteSpace%3Dwrap%3Bhtml%3D1%3B%22%20vertex%3D%221%22%20parent%3D%221%22%3E%3CmxGeometry%20x%3D%22860%22%20y%3D%22640%22%20width%3D%22100%22%20height%3D%2240%22%20as%3D%22geometry%22%2F%3E%3C%2FmxCell%3E%3C%2Froot%3E%3C%2FmxGraphModel%3E&lt;/span&gt;" style="ellipse;whiteSpace=wrap;html=1;" parent="1" vertex="1">
                    <mxGeometry x="1000" y="660" width="100" height="40" as="geometry"/>
                </mxCell>
                <mxCell id="WpMRGLQhzF-ZAPX9bkS3-30" value="defensive_rating&lt;span style=&quot;color: rgba(0 , 0 , 0 , 0) ; font-family: monospace ; font-size: 0px&quot;&gt;%3CmxGraphModel%3E%3Croot%3E%3CmxCell%20id%3D%220%22%2F%3E%3CmxCell%20id%3D%221%22%20parent%3D%220%22%2F%3E%3CmxCell%20id%3D%222%22%20value%3D%22team_name%22%20style%3D%22ellipse%3BwhiteSpace%3Dwrap%3Bhtml%3D1%3B%22%20vertex%3D%221%22%20parent%3D%221%22%3E%3CmxGeometry%20x%3D%22860%22%20y%3D%22640%22%20width%3D%22100%22%20height%3D%2240%22%20as%3D%22geometry%22%2F%3E%3C%2FmxCell%3E%3C%2Froot%3E%3C%2FmxGraphModel%3E&lt;/span&gt;" style="ellipse;whiteSpace=wrap;html=1;" parent="1" vertex="1">
                    <mxGeometry x="1030" y="610" width="100" height="40" as="geometry"/>
                </mxCell>
                <mxCell id="WpMRGLQhzF-ZAPX9bkS3-31" style="rounded=0;orthogonalLoop=1;jettySize=auto;html=1;exitX=0.25;exitY=1;exitDx=0;exitDy=0;entryX=1;entryY=0;entryDx=0;entryDy=0;endArrow=none;endFill=0;" parent="1" source="ZrlskQMUJPXPYAdlO2X_-20" target="WpMRGLQhzF-ZAPX9bkS3-28" edge="1">
                    <mxGeometry relative="1" as="geometry">
                        <mxPoint x="1125.25388964396" y="444.18259928205293" as="sourcePoint"/>
                        <mxPoint x="1154.7461103560338" y="465.8174007179447" as="targetPoint"/>
                    </mxGeometry>
                </mxCell>
                <mxCell id="WpMRGLQhzF-ZAPX9bkS3-32" style="rounded=0;orthogonalLoop=1;jettySize=auto;html=1;exitX=0.75;exitY=1;exitDx=0;exitDy=0;entryX=0;entryY=0;entryDx=0;entryDy=0;endArrow=none;endFill=0;" parent="1" source="ZrlskQMUJPXPYAdlO2X_-20" target="WpMRGLQhzF-ZAPX9bkS3-30" edge="1">
                    <mxGeometry relative="1" as="geometry">
                        <mxPoint x="955" y="610" as="sourcePoint"/>
                        <mxPoint x="935.2538896439542" y="645.8174007179496" as="targetPoint"/>
                    </mxGeometry>
                </mxCell>
                <mxCell id="WpMRGLQhzF-ZAPX9bkS3-33" style="rounded=0;orthogonalLoop=1;jettySize=auto;html=1;exitX=0.578;exitY=0.985;exitDx=0;exitDy=0;entryX=0.5;entryY=0;entryDx=0;entryDy=0;endArrow=none;endFill=0;exitPerimeter=0;" parent="1" source="ZrlskQMUJPXPYAdlO2X_-20" target="WpMRGLQhzF-ZAPX9bkS3-29" edge="1">
                    <mxGeometry relative="1" as="geometry">
                        <mxPoint x="1005" y="610" as="sourcePoint"/>
                        <mxPoint x="1024.7461103560343" y="645.8174007179448" as="targetPoint"/>
                    </mxGeometry>
                </mxCell>
                <mxCell id="1BAFGmvLoh52OS55wQiA-31" style="edgeStyle=none;rounded=0;orthogonalLoop=1;jettySize=auto;html=1;exitX=1;exitY=0;exitDx=0;exitDy=0;endArrow=none;endFill=0;" parent="1" source="rXsFG1wBV2ONbdxPozWu-59" target="1BAFGmvLoh52OS55wQiA-11" edge="1">
                    <mxGeometry relative="1" as="geometry">
                        <mxPoint x="971" y="10" as="sourcePoint"/>
                    </mxGeometry>
                </mxCell>
                <mxCell id="WpMRGLQhzF-ZAPX9bkS3-57" value="time" style="ellipse;whiteSpace=wrap;html=1;" parent="1" vertex="1">
                    <mxGeometry x="690" y="740" width="100" height="40" as="geometry"/>
                </mxCell>
                <mxCell id="WpMRGLQhzF-ZAPX9bkS3-61" value="location" style="ellipse;whiteSpace=wrap;html=1;" parent="1" vertex="1">
                    <mxGeometry x="425" y="720" width="100" height="40" as="geometry"/>
                </mxCell>
                <mxCell id="WpMRGLQhzF-ZAPX9bkS3-66" value="tv_network" style="ellipse;whiteSpace=wrap;html=1;" parent="1" vertex="1">
                    <mxGeometry x="561" y="740" width="100" height="40" as="geometry"/>
                </mxCell>
                <mxCell id="1BAFGmvLoh52OS55wQiA-35" value="" style="endArrow=none;html=1;" parent="1" edge="1">
                    <mxGeometry width="50" height="50" relative="1" as="geometry">
                        <mxPoint x="540" y="330" as="sourcePoint"/>
                        <mxPoint x="560" y="330" as="targetPoint"/>
                    </mxGeometry>
                </mxCell>
                <mxCell id="1BAFGmvLoh52OS55wQiA-36" value="" style="endArrow=none;html=1;" parent="1" edge="1">
                    <mxGeometry width="50" height="50" relative="1" as="geometry">
                        <mxPoint x="540" y="330" as="sourcePoint"/>
                        <mxPoint x="540" y="310" as="targetPoint"/>
                    </mxGeometry>
                </mxCell>
                <mxCell id="1BAFGmvLoh52OS55wQiA-37" value="" style="endArrow=none;html=1;" parent="1" edge="1">
                    <mxGeometry width="50" height="50" relative="1" as="geometry">
                        <mxPoint x="680" y="330" as="sourcePoint"/>
                        <mxPoint x="700" y="330" as="targetPoint"/>
                    </mxGeometry>
                </mxCell>
                <mxCell id="1BAFGmvLoh52OS55wQiA-38" value="" style="endArrow=none;html=1;" parent="1" edge="1">
                    <mxGeometry width="50" height="50" relative="1" as="geometry">
                        <mxPoint x="700" y="310" as="sourcePoint"/>
                        <mxPoint x="700" y="330" as="targetPoint"/>
                    </mxGeometry>
                </mxCell>
                <mxCell id="WpMRGLQhzF-ZAPX9bkS3-87" value="" style="edgeStyle=none;rounded=0;orthogonalLoop=1;jettySize=auto;html=1;" parent="1" source="WpMRGLQhzF-ZAPX9bkS3-68" target="ZrlskQMUJPXPYAdlO2X_-24" edge="1">
                    <mxGeometry relative="1" as="geometry"/>
                </mxCell>
                <mxCell id="WpMRGLQhzF-ZAPX9bkS3-68" value="N" style="text;html=1;align=center;verticalAlign=middle;resizable=0;points=[];autosize=1;" parent="1" vertex="1">
                    <mxGeometry x="970" y="460" width="20" height="20" as="geometry"/>
                </mxCell>
                <mxCell id="WpMRGLQhzF-ZAPX9bkS3-69" value="1" style="text;html=1;align=center;verticalAlign=middle;resizable=0;points=[];autosize=1;" parent="1" vertex="1">
                    <mxGeometry x="970" y="540" width="20" height="20" as="geometry"/>
                </mxCell>
                <mxCell id="WpMRGLQhzF-ZAPX9bkS3-70" value="N" style="text;html=1;align=center;verticalAlign=middle;resizable=0;points=[];autosize=1;" parent="1" vertex="1">
                    <mxGeometry x="1020" y="560" width="20" height="20" as="geometry"/>
                </mxCell>
                <mxCell id="8U0G6GVpHGwCdWKfCbeY-4" value="N" style="text;html=1;align=center;verticalAlign=middle;resizable=0;points=[];autosize=1;" parent="1" vertex="1">
                    <mxGeometry x="600" y="600" width="20" height="20" as="geometry"/>
                </mxCell>
                <mxCell id="WpMRGLQhzF-ZAPX9bkS3-72" value="N" style="text;html=1;align=center;verticalAlign=middle;resizable=0;points=[];autosize=1;" parent="1" vertex="1">
                    <mxGeometry x="670" y="580" width="20" height="20" as="geometry"/>
                </mxCell>
                <mxCell id="WpMRGLQhzF-ZAPX9bkS3-73" value="M" style="text;html=1;align=center;verticalAlign=middle;resizable=0;points=[];autosize=1;" parent="1" vertex="1">
                    <mxGeometry x="895" y="580" width="30" height="20" as="geometry"/>
                </mxCell>
                <mxCell id="WpMRGLQhzF-ZAPX9bkS3-74" value="N" style="text;html=1;align=center;verticalAlign=middle;resizable=0;points=[];autosize=1;" parent="1" vertex="1">
                    <mxGeometry x="481" y="400" width="20" height="20" as="geometry"/>
                </mxCell>
                <mxCell id="WpMRGLQhzF-ZAPX9bkS3-75" value="M" style="text;html=1;align=center;verticalAlign=middle;resizable=0;points=[];autosize=1;" parent="1" vertex="1">
                    <mxGeometry x="550" y="540" width="30" height="20" as="geometry"/>
                </mxCell>
                <mxCell id="1BAFGmvLoh52OS55wQiA-40" value="1" style="text;html=1;align=center;verticalAlign=middle;resizable=0;points=[];autosize=1;" parent="1" vertex="1">
                    <mxGeometry x="311" y="160" width="20" height="20" as="geometry"/>
                </mxCell>
                <mxCell id="WpMRGLQhzF-ZAPX9bkS3-76" value="N" style="text;html=1;align=center;verticalAlign=middle;resizable=0;points=[];autosize=1;" parent="1" vertex="1">
                    <mxGeometry x="740" y="400" width="20" height="20" as="geometry"/>
                </mxCell>
                <mxCell id="WpMRGLQhzF-ZAPX9bkS3-77" value="M" style="text;html=1;align=center;verticalAlign=middle;resizable=0;points=[];autosize=1;" parent="1" vertex="1">
                    <mxGeometry x="660" y="540" width="30" height="20" as="geometry"/>
                </mxCell>
                <mxCell id="8wyXn0_WSblSLnr_gkN9-12" value="&lt;u&gt;merchandise_id&lt;/u&gt;" style="ellipse;whiteSpace=wrap;html=1;" parent="1" vertex="1">
                    <mxGeometry x="1175" y="-170" width="100" height="40" as="geometry"/>
                </mxCell>
                <mxCell id="7eU3OdzdO1Qi82-PjRWN-1" style="rounded=0;orthogonalLoop=1;jettySize=auto;html=1;exitX=1;exitY=0;exitDx=0;exitDy=0;endArrow=none;endFill=0;" parent="1" source="0x5HK6UahMqDHKragLJr-1" target="ZrlskQMUJPXPYAdlO2X_-33" edge="1">
                    <mxGeometry relative="1" as="geometry"/>
                </mxCell>
                <mxCell id="0x5HK6UahMqDHKragLJr-1" value="chosen_team" style="ellipse;whiteSpace=wrap;html=1;" parent="1" vertex="1">
                    <mxGeometry x="350" y="500" width="100" height="40" as="geometry"/>
                </mxCell>
                <mxCell id="rXsFG1wBV2ONbdxPozWu-3" style="rounded=0;orthogonalLoop=1;jettySize=auto;html=1;exitX=1;exitY=0.5;exitDx=0;exitDy=0;endArrow=none;endFill=0;" parent="1" source="rXsFG1wBV2ONbdxPozWu-69" target="QpFSuCOk6u6ckfQCm7wt-14" edge="1">
                    <mxGeometry relative="1" as="geometry"/>
                </mxCell>
                <mxCell id="rXsFG1wBV2ONbdxPozWu-2" value="&lt;div&gt;Badges&lt;/div&gt;" style="rounded=0;whiteSpace=wrap;html=1;fillColor=#ffe6cc;strokeColor=#d79b00;" parent="1" vertex="1">
                    <mxGeometry x="210" y="160" width="100" height="40" as="geometry"/>
                </mxCell>
                <mxCell id="rXsFG1wBV2ONbdxPozWu-5" value="&lt;div&gt;Votes&lt;/div&gt;" style="rounded=0;whiteSpace=wrap;html=1;fillColor=#f8cecc;strokeColor=#b85450;" parent="1" vertex="1">
                    <mxGeometry x="930" y="160" width="100" height="40" as="geometry"/>
                </mxCell>
                <mxCell id="rXsFG1wBV2ONbdxPozWu-6" style="rounded=0;orthogonalLoop=1;jettySize=auto;html=1;exitX=1;exitY=0.5;exitDx=0;exitDy=0;endArrow=none;endFill=0;" parent="1" edge="1">
                    <mxGeometry relative="1" as="geometry">
                        <mxPoint x="670" y="180" as="sourcePoint"/>
                        <mxPoint x="930" y="180" as="targetPoint"/>
                    </mxGeometry>
                </mxCell>
                <mxCell id="rXsFG1wBV2ONbdxPozWu-7" value="Has" style="rhombus;whiteSpace=wrap;html=1;" parent="1" vertex="1">
                    <mxGeometry x="770" y="150" width="80" height="60" as="geometry"/>
                </mxCell>
                <mxCell id="rXsFG1wBV2ONbdxPozWu-13" style="edgeStyle=orthogonalEdgeStyle;rounded=0;orthogonalLoop=1;jettySize=auto;html=1;exitX=0.5;exitY=1;exitDx=0;exitDy=0;endArrow=none;endFill=0;" parent="1" source="rXsFG1wBV2ONbdxPozWu-9" target="rXsFG1wBV2ONbdxPozWu-5" edge="1">
                    <mxGeometry relative="1" as="geometry"/>
                </mxCell>
                <mxCell id="rXsFG1wBV2ONbdxPozWu-9" value="game_id" style="ellipse;whiteSpace=wrap;html=1;" parent="1" vertex="1">
                    <mxGeometry x="880" y="100" width="100" height="40" as="geometry"/>
                </mxCell>
                <mxCell id="rXsFG1wBV2ONbdxPozWu-14" style="edgeStyle=orthogonalEdgeStyle;rounded=0;orthogonalLoop=1;jettySize=auto;html=1;exitX=0;exitY=1;exitDx=0;exitDy=0;entryX=0.58;entryY=0;entryDx=0;entryDy=0;entryPerimeter=0;endArrow=none;endFill=0;" parent="1" source="rXsFG1wBV2ONbdxPozWu-10" target="rXsFG1wBV2ONbdxPozWu-5" edge="1">
                    <mxGeometry relative="1" as="geometry"/>
                </mxCell>
                <mxCell id="rXsFG1wBV2ONbdxPozWu-10" value="account_id" style="ellipse;whiteSpace=wrap;html=1;" parent="1" vertex="1">
                    <mxGeometry x="990" y="100" width="100" height="40" as="geometry"/>
                </mxCell>
                <mxCell id="rXsFG1wBV2ONbdxPozWu-15" style="edgeStyle=orthogonalEdgeStyle;rounded=0;orthogonalLoop=1;jettySize=auto;html=1;exitX=0;exitY=0.5;exitDx=0;exitDy=0;endArrow=none;endFill=0;" parent="1" source="rXsFG1wBV2ONbdxPozWu-11" target="rXsFG1wBV2ONbdxPozWu-5" edge="1">
                    <mxGeometry relative="1" as="geometry"/>
                </mxCell>
                <mxCell id="rXsFG1wBV2ONbdxPozWu-11" value="points_awarded" style="ellipse;whiteSpace=wrap;html=1;" parent="1" vertex="1">
                    <mxGeometry x="1110" y="140" width="110" height="40" as="geometry"/>
                </mxCell>
                <mxCell id="rXsFG1wBV2ONbdxPozWu-22" style="edgeStyle=orthogonalEdgeStyle;rounded=0;orthogonalLoop=1;jettySize=auto;html=1;exitX=1;exitY=1;exitDx=0;exitDy=0;entryX=0.13;entryY=-0.075;entryDx=0;entryDy=0;entryPerimeter=0;endArrow=none;endFill=0;" parent="1" source="rXsFG1wBV2ONbdxPozWu-19" target="rXsFG1wBV2ONbdxPozWu-2" edge="1">
                    <mxGeometry relative="1" as="geometry"/>
                </mxCell>
                <mxCell id="rXsFG1wBV2ONbdxPozWu-19" value="badge_id" style="ellipse;whiteSpace=wrap;html=1;" parent="1" vertex="1">
                    <mxGeometry x="100" y="100" width="100" height="40" as="geometry"/>
                </mxCell>
                <mxCell id="rXsFG1wBV2ONbdxPozWu-23" style="rounded=0;orthogonalLoop=1;jettySize=auto;html=1;exitX=0.5;exitY=1;exitDx=0;exitDy=0;entryX=0.5;entryY=0;entryDx=0;entryDy=0;endArrow=none;endFill=0;" parent="1" source="rXsFG1wBV2ONbdxPozWu-20" target="rXsFG1wBV2ONbdxPozWu-2" edge="1">
                    <mxGeometry relative="1" as="geometry"/>
                </mxCell>
                <mxCell id="rXsFG1wBV2ONbdxPozWu-20" value="account_id" style="ellipse;whiteSpace=wrap;html=1;" parent="1" vertex="1">
                    <mxGeometry x="250" y="107" width="100" height="40" as="geometry"/>
                </mxCell>
                <mxCell id="rXsFG1wBV2ONbdxPozWu-26" style="edgeStyle=none;rounded=0;orthogonalLoop=1;jettySize=auto;html=1;exitX=1;exitY=0;exitDx=0;exitDy=0;endArrow=none;endFill=0;" parent="1" source="rXsFG1wBV2ONbdxPozWu-25" target="rXsFG1wBV2ONbdxPozWu-2" edge="1">
                    <mxGeometry relative="1" as="geometry"/>
                </mxCell>
                <mxCell id="rXsFG1wBV2ONbdxPozWu-25" value="badge_name" style="ellipse;whiteSpace=wrap;html=1;" parent="1" vertex="1">
                    <mxGeometry x="110" y="230" width="100" height="40" as="geometry"/>
                </mxCell>
                <mxCell id="rXsFG1wBV2ONbdxPozWu-28" style="edgeStyle=none;rounded=0;orthogonalLoop=1;jettySize=auto;html=1;exitX=0.5;exitY=1;exitDx=0;exitDy=0;entryX=0.25;entryY=0;entryDx=0;entryDy=0;endArrow=none;endFill=0;" parent="1" source="rXsFG1wBV2ONbdxPozWu-27" target="rXsFG1wBV2ONbdxPozWu-2" edge="1">
                    <mxGeometry relative="1" as="geometry"/>
                </mxCell>
                <mxCell id="rXsFG1wBV2ONbdxPozWu-27" value="badge_img" style="ellipse;whiteSpace=wrap;html=1;" parent="1" vertex="1">
                    <mxGeometry x="170" y="50" width="100" height="40" as="geometry"/>
                </mxCell>
                <mxCell id="rXsFG1wBV2ONbdxPozWu-30" style="edgeStyle=none;rounded=0;orthogonalLoop=1;jettySize=auto;html=1;exitX=0.5;exitY=1;exitDx=0;exitDy=0;endArrow=none;endFill=0;" parent="1" source="rXsFG1wBV2ONbdxPozWu-29" target="QpFSuCOk6u6ckfQCm7wt-14" edge="1">
                    <mxGeometry relative="1" as="geometry"/>
                </mxCell>
                <mxCell id="rXsFG1wBV2ONbdxPozWu-29" value="badge_id_displayed" style="ellipse;whiteSpace=wrap;html=1;" parent="1" vertex="1">
                    <mxGeometry x="490" y="-20" width="120" height="40" as="geometry"/>
                </mxCell>
                <mxCell id="rXsFG1wBV2ONbdxPozWu-32" style="edgeStyle=none;rounded=0;orthogonalLoop=1;jettySize=auto;html=1;exitX=0;exitY=1;exitDx=0;exitDy=0;entryX=0.19;entryY=0.025;entryDx=0;entryDy=0;entryPerimeter=0;endArrow=none;endFill=0;" parent="1" source="rXsFG1wBV2ONbdxPozWu-31" target="rXsFG1wBV2ONbdxPozWu-2" edge="1">
                    <mxGeometry relative="1" as="geometry"/>
                </mxCell>
                <mxCell id="rXsFG1wBV2ONbdxPozWu-31" value="badge_type" style="ellipse;whiteSpace=wrap;html=1;" parent="1" vertex="1">
                    <mxGeometry x="271" y="20" width="100" height="40" as="geometry"/>
                </mxCell>
                <mxCell id="rXsFG1wBV2ONbdxPozWu-37" style="edgeStyle=none;rounded=0;orthogonalLoop=1;jettySize=auto;html=1;exitX=1;exitY=1;exitDx=0;exitDy=0;entryX=0.05;entryY=0.325;entryDx=0;entryDy=0;entryPerimeter=0;endArrow=none;endFill=0;" parent="1" source="rXsFG1wBV2ONbdxPozWu-33" target="rXsFG1wBV2ONbdxPozWu-31" edge="1">
                    <mxGeometry relative="1" as="geometry"/>
                </mxCell>
                <mxCell id="rXsFG1wBV2ONbdxPozWu-33" value="bronze" style="ellipse;whiteSpace=wrap;html=1;" parent="1" vertex="1">
                    <mxGeometry x="140" y="-27" width="100" height="40" as="geometry"/>
                </mxCell>
                <mxCell id="rXsFG1wBV2ONbdxPozWu-38" style="edgeStyle=none;rounded=0;orthogonalLoop=1;jettySize=auto;html=1;exitX=0.5;exitY=1;exitDx=0;exitDy=0;endArrow=none;endFill=0;" parent="1" source="rXsFG1wBV2ONbdxPozWu-34" target="rXsFG1wBV2ONbdxPozWu-31" edge="1">
                    <mxGeometry relative="1" as="geometry"/>
                </mxCell>
                <mxCell id="rXsFG1wBV2ONbdxPozWu-34" value="silver" style="ellipse;whiteSpace=wrap;html=1;" parent="1" vertex="1">
                    <mxGeometry x="250" y="-77" width="100" height="40" as="geometry"/>
                </mxCell>
                <mxCell id="rXsFG1wBV2ONbdxPozWu-39" style="edgeStyle=none;rounded=0;orthogonalLoop=1;jettySize=auto;html=1;exitX=0;exitY=1;exitDx=0;exitDy=0;endArrow=none;endFill=0;" parent="1" source="rXsFG1wBV2ONbdxPozWu-35" target="rXsFG1wBV2ONbdxPozWu-31" edge="1">
                    <mxGeometry relative="1" as="geometry"/>
                </mxCell>
                <mxCell id="rXsFG1wBV2ONbdxPozWu-35" value="gold" style="ellipse;whiteSpace=wrap;html=1;" parent="1" vertex="1">
                    <mxGeometry x="360" y="-77" width="100" height="40" as="geometry"/>
                </mxCell>
                <mxCell id="rXsFG1wBV2ONbdxPozWu-40" style="edgeStyle=none;rounded=0;orthogonalLoop=1;jettySize=auto;html=1;exitX=0;exitY=1;exitDx=0;exitDy=0;entryX=0.93;entryY=0.275;entryDx=0;entryDy=0;entryPerimeter=0;endArrow=none;endFill=0;" parent="1" source="rXsFG1wBV2ONbdxPozWu-36" target="rXsFG1wBV2ONbdxPozWu-31" edge="1">
                    <mxGeometry relative="1" as="geometry"/>
                </mxCell>
                <mxCell id="rXsFG1wBV2ONbdxPozWu-36" value="diamond" style="ellipse;whiteSpace=wrap;html=1;" parent="1" vertex="1">
                    <mxGeometry x="381" y="-7" width="100" height="40" as="geometry"/>
                </mxCell>
                <mxCell id="rXsFG1wBV2ONbdxPozWu-44" style="edgeStyle=none;rounded=0;orthogonalLoop=1;jettySize=auto;html=1;exitX=0.5;exitY=1;exitDx=0;exitDy=0;entryX=0.75;entryY=0;entryDx=0;entryDy=0;endArrow=none;endFill=0;" parent="1" source="rXsFG1wBV2ONbdxPozWu-43" target="QpFSuCOk6u6ckfQCm7wt-14" edge="1">
                    <mxGeometry relative="1" as="geometry"/>
                </mxCell>
                <mxCell id="rXsFG1wBV2ONbdxPozWu-43" value="total_points_earned" style="ellipse;whiteSpace=wrap;html=1;" parent="1" vertex="1">
                    <mxGeometry x="460" y="-130" width="130" height="40" as="geometry"/>
                </mxCell>
                <mxCell id="rXsFG1wBV2ONbdxPozWu-46" style="edgeStyle=none;rounded=0;orthogonalLoop=1;jettySize=auto;html=1;exitX=0;exitY=1;exitDx=0;exitDy=0;entryX=0.91;entryY=-0.1;entryDx=0;entryDy=0;entryPerimeter=0;endArrow=none;endFill=0;" parent="1" source="rXsFG1wBV2ONbdxPozWu-45" target="QpFSuCOk6u6ckfQCm7wt-14" edge="1">
                    <mxGeometry relative="1" as="geometry"/>
                </mxCell>
                <mxCell id="rXsFG1wBV2ONbdxPozWu-45" value="total_points_spent" style="ellipse;whiteSpace=wrap;html=1;" parent="1" vertex="1">
                    <mxGeometry x="590" y="-130" width="120" height="40" as="geometry"/>
                </mxCell>
                <mxCell id="rXsFG1wBV2ONbdxPozWu-48" style="edgeStyle=none;rounded=0;orthogonalLoop=1;jettySize=auto;html=1;exitX=0;exitY=0.5;exitDx=0;exitDy=0;entryX=1;entryY=0.5;entryDx=0;entryDy=0;endArrow=none;endFill=0;" parent="1" source="rXsFG1wBV2ONbdxPozWu-47" target="1BAFGmvLoh52OS55wQiA-11" edge="1">
                    <mxGeometry relative="1" as="geometry"/>
                </mxCell>
                <mxCell id="rXsFG1wBV2ONbdxPozWu-47" value="Point Shop Order Line Items" style="rounded=0;whiteSpace=wrap;html=1;fillColor=#ffe6cc;strokeColor=#d79b00;" parent="1" vertex="1">
                    <mxGeometry x="1175" y="-77" width="100" height="40" as="geometry"/>
                </mxCell>
                <mxCell id="rXsFG1wBV2ONbdxPozWu-51" value="Merchandise" style="rounded=0;whiteSpace=wrap;html=1;fillColor=#ffe6cc;strokeColor=#d79b00;" parent="1" vertex="1">
                    <mxGeometry x="910" y="-210" width="100" height="40" as="geometry"/>
                </mxCell>
                <mxCell id="rXsFG1wBV2ONbdxPozWu-53" style="edgeStyle=none;rounded=0;orthogonalLoop=1;jettySize=auto;html=1;exitX=1;exitY=1;exitDx=0;exitDy=0;entryX=0;entryY=0.75;entryDx=0;entryDy=0;endArrow=none;endFill=0;" parent="1" source="rXsFG1wBV2ONbdxPozWu-52" target="rXsFG1wBV2ONbdxPozWu-51" edge="1">
                    <mxGeometry relative="1" as="geometry"/>
                </mxCell>
                <mxCell id="rXsFG1wBV2ONbdxPozWu-52" value="&lt;u&gt;merchandise_id&lt;/u&gt;" style="ellipse;whiteSpace=wrap;html=1;" parent="1" vertex="1">
                    <mxGeometry x="760" y="-220" width="100" height="40" as="geometry"/>
                </mxCell>
                <mxCell id="rXsFG1wBV2ONbdxPozWu-55" style="edgeStyle=none;rounded=0;orthogonalLoop=1;jettySize=auto;html=1;exitX=1;exitY=0.5;exitDx=0;exitDy=0;entryX=0;entryY=1;entryDx=0;entryDy=0;endArrow=none;endFill=0;" parent="1" source="rXsFG1wBV2ONbdxPozWu-54" target="rXsFG1wBV2ONbdxPozWu-51" edge="1">
                    <mxGeometry relative="1" as="geometry"/>
                </mxCell>
                <mxCell id="rXsFG1wBV2ONbdxPozWu-54" value="item_name" style="ellipse;whiteSpace=wrap;html=1;" parent="1" vertex="1">
                    <mxGeometry x="770" y="-160" width="100" height="40" as="geometry"/>
                </mxCell>
                <mxCell id="rXsFG1wBV2ONbdxPozWu-57" style="edgeStyle=none;rounded=0;orthogonalLoop=1;jettySize=auto;html=1;exitX=0;exitY=1;exitDx=0;exitDy=0;entryX=1;entryY=0.5;entryDx=0;entryDy=0;endArrow=none;endFill=0;" parent="1" source="rXsFG1wBV2ONbdxPozWu-56" target="rXsFG1wBV2ONbdxPozWu-51" edge="1">
                    <mxGeometry relative="1" as="geometry"/>
                </mxCell>
                <mxCell id="rXsFG1wBV2ONbdxPozWu-56" value="price" style="ellipse;whiteSpace=wrap;html=1;" parent="1" vertex="1">
                    <mxGeometry x="1036" y="-220" width="100" height="40" as="geometry"/>
                </mxCell>
                <mxCell id="rXsFG1wBV2ONbdxPozWu-59" value="Spends" style="rhombus;whiteSpace=wrap;html=1;" parent="1" vertex="1">
                    <mxGeometry x="820" width="80" height="60" as="geometry"/>
                </mxCell>
                <mxCell id="rXsFG1wBV2ONbdxPozWu-60" style="edgeStyle=none;rounded=0;orthogonalLoop=1;jettySize=auto;html=1;exitX=1;exitY=0;exitDx=0;exitDy=0;endArrow=none;endFill=0;" parent="1" source="QpFSuCOk6u6ckfQCm7wt-14" target="rXsFG1wBV2ONbdxPozWu-59" edge="1">
                    <mxGeometry relative="1" as="geometry">
                        <mxPoint x="670" y="160" as="sourcePoint"/>
                        <mxPoint x="989.5652173913045" y="-50" as="targetPoint"/>
                    </mxGeometry>
                </mxCell>
                <mxCell id="rXsFG1wBV2ONbdxPozWu-62" style="edgeStyle=none;rounded=0;orthogonalLoop=1;jettySize=auto;html=1;exitX=0.5;exitY=1;exitDx=0;exitDy=0;entryX=0;entryY=0.5;entryDx=0;entryDy=0;endArrow=none;endFill=0;" parent="1" source="rXsFG1wBV2ONbdxPozWu-61" target="1BAFGmvLoh52OS55wQiA-11" edge="1">
                    <mxGeometry relative="1" as="geometry"/>
                </mxCell>
                <mxCell id="rXsFG1wBV2ONbdxPozWu-61" value="&lt;u&gt;order_id&lt;/u&gt;" style="ellipse;whiteSpace=wrap;html=1;" parent="1" vertex="1">
                    <mxGeometry x="850" y="-110" width="100" height="40" as="geometry"/>
                </mxCell>
                <mxCell id="rXsFG1wBV2ONbdxPozWu-64" style="edgeStyle=none;rounded=0;orthogonalLoop=1;jettySize=auto;html=1;exitX=0.5;exitY=0;exitDx=0;exitDy=0;entryX=0.25;entryY=1;entryDx=0;entryDy=0;endArrow=none;endFill=0;" parent="1" source="rXsFG1wBV2ONbdxPozWu-63" target="1BAFGmvLoh52OS55wQiA-11" edge="1">
                    <mxGeometry relative="1" as="geometry"/>
                </mxCell>
                <mxCell id="rXsFG1wBV2ONbdxPozWu-63" value="&lt;u&gt;account_id&lt;/u&gt;" style="ellipse;whiteSpace=wrap;html=1;" parent="1" vertex="1">
                    <mxGeometry x="910" y="13" width="100" height="40" as="geometry"/>
                </mxCell>
                <mxCell id="rXsFG1wBV2ONbdxPozWu-66" style="edgeStyle=none;rounded=0;orthogonalLoop=1;jettySize=auto;html=1;exitX=0;exitY=0;exitDx=0;exitDy=0;entryX=0.64;entryY=1;entryDx=0;entryDy=0;entryPerimeter=0;endArrow=none;endFill=0;" parent="1" source="rXsFG1wBV2ONbdxPozWu-65" target="1BAFGmvLoh52OS55wQiA-11" edge="1">
                    <mxGeometry relative="1" as="geometry"/>
                </mxCell>
                <mxCell id="rXsFG1wBV2ONbdxPozWu-65" value="order_total" style="ellipse;whiteSpace=wrap;html=1;" parent="1" vertex="1">
                    <mxGeometry x="1020" y="13" width="100" height="40" as="geometry"/>
                </mxCell>
                <mxCell id="rXsFG1wBV2ONbdxPozWu-68" style="edgeStyle=none;rounded=0;orthogonalLoop=1;jettySize=auto;html=1;exitX=0;exitY=1;exitDx=0;exitDy=0;entryX=0.75;entryY=0;entryDx=0;entryDy=0;endArrow=none;endFill=0;" parent="1" source="rXsFG1wBV2ONbdxPozWu-67" target="QpFSuCOk6u6ckfQCm7wt-14" edge="1">
                    <mxGeometry relative="1" as="geometry"/>
                </mxCell>
                <mxCell id="rXsFG1wBV2ONbdxPozWu-67" value="total_points_balance" style="ellipse;whiteSpace=wrap;html=1;" parent="1" vertex="1">
                    <mxGeometry x="682.5" y="-110" width="135" height="40" as="geometry"/>
                </mxCell>
                <mxCell id="rXsFG1wBV2ONbdxPozWu-69" value="&lt;div&gt;Badges&lt;/div&gt;&lt;div&gt;Earned&lt;/div&gt;" style="rounded=0;whiteSpace=wrap;html=1;fillColor=#ffe6cc;strokeColor=#d79b00;" parent="1" vertex="1">
                    <mxGeometry x="390" y="170" width="100" height="40" as="geometry"/>
                </mxCell>
                <mxCell id="rXsFG1wBV2ONbdxPozWu-70" style="rounded=0;orthogonalLoop=1;jettySize=auto;html=1;exitX=1;exitY=0.5;exitDx=0;exitDy=0;endArrow=none;endFill=0;" parent="1" source="rXsFG1wBV2ONbdxPozWu-2" target="rXsFG1wBV2ONbdxPozWu-69" edge="1">
                    <mxGeometry relative="1" as="geometry">
                        <mxPoint x="310" y="180" as="sourcePoint"/>
                        <mxPoint x="570" y="180" as="targetPoint"/>
                    </mxGeometry>
                </mxCell>
                <mxCell id="2L7ekZ3mOcyCN0JGekiJ-4" style="rounded=0;orthogonalLoop=1;jettySize=auto;html=1;exitX=1;exitY=0;exitDx=0;exitDy=0;endArrow=none;endFill=0;" parent="1" source="2L7ekZ3mOcyCN0JGekiJ-3" edge="1">
                    <mxGeometry relative="1" as="geometry">
                        <mxPoint x="570" y="600" as="targetPoint"/>
                    </mxGeometry>
                </mxCell>
                <mxCell id="2L7ekZ3mOcyCN0JGekiJ-3" value="home_percent" style="ellipse;whiteSpace=wrap;html=1;" parent="1" vertex="1">
                    <mxGeometry x="350" y="630" width="100" height="40" as="geometry"/>
                </mxCell>
                <mxCell id="2L7ekZ3mOcyCN0JGekiJ-6" style="rounded=0;orthogonalLoop=1;jettySize=auto;html=1;exitX=1;exitY=0;exitDx=0;exitDy=0;entryX=0.25;entryY=1;entryDx=0;entryDy=0;endArrow=none;endFill=0;" parent="1" source="2L7ekZ3mOcyCN0JGekiJ-5" target="QpFSuCOk6u6ckfQCm7wt-45" edge="1">
                    <mxGeometry relative="1" as="geometry"/>
                </mxCell>
                <mxCell id="2L7ekZ3mOcyCN0JGekiJ-5" value="visitor_percent" style="ellipse;whiteSpace=wrap;html=1;" parent="1" vertex="1">
                    <mxGeometry x="341" y="690" width="100" height="40" as="geometry"/>
                </mxCell>
                <mxCell id="2L7ekZ3mOcyCN0JGekiJ-8" style="edgeStyle=none;rounded=0;orthogonalLoop=1;jettySize=auto;html=1;exitX=0;exitY=1;exitDx=0;exitDy=0;entryX=1;entryY=0;entryDx=0;entryDy=0;endArrow=none;endFill=0;" parent="1" source="2L7ekZ3mOcyCN0JGekiJ-7" target="rXsFG1wBV2ONbdxPozWu-5" edge="1">
                    <mxGeometry relative="1" as="geometry"/>
                </mxCell>
                <mxCell id="2L7ekZ3mOcyCN0JGekiJ-7" value="chosen_team" style="ellipse;whiteSpace=wrap;html=1;" parent="1" vertex="1">
                    <mxGeometry x="1136" y="80" width="100" height="40" as="geometry"/>
                </mxCell>
            </root>
        </mxGraphModel>
    </diagram>
    <diagram name="RM" id="XvdNJQmqIgBFxhPGlVgX">
        &#xa;
        <mxGraphModel dx="1374" dy="660" grid="1" gridSize="10" guides="1" tooltips="1" connect="1" arrows="1" fold="1" page="1" pageScale="1" pageWidth="850" pageHeight="1100" math="0" shadow="0">
            &#xa;
            <root>
                &#xa;
                <mxCell id="mqlln7EPuW1ir5qae_5H-0"/>
                &#xa;
                <mxCell id="mqlln7EPuW1ir5qae_5H-1" parent="mqlln7EPuW1ir5qae_5H-0"/>
                &#xa;
                <mxCell id="x7om938RkSpqgUw9fLo1-2" style="edgeStyle=orthogonalEdgeStyle;rounded=0;orthogonalLoop=1;jettySize=auto;html=1;exitX=0;exitY=0.5;exitDx=0;exitDy=0;entryX=0;entryY=0.5;entryDx=0;entryDy=0;endArrow=none;endFill=0;startArrow=classic;startFill=1;" parent="mqlln7EPuW1ir5qae_5H-1" source="mqlln7EPuW1ir5qae_5H-16" target="x7om938RkSpqgUw9fLo1-0" edge="1">
                    &#xa;
                    <mxGeometry relative="1" as="geometry"/>
                    &#xa;
                </mxCell>
                &#xa;
                <mxCell id="mqlln7EPuW1ir5qae_5H-16" value="&lt;u style=&quot;font-size: 16px&quot;&gt;email&lt;/u&gt;" style="rounded=0;whiteSpace=wrap;html=1;fontSize=16;fillColor=#f5f5f5;strokeColor=#666666;fontColor=#333333;" parent="mqlln7EPuW1ir5qae_5H-1" vertex="1">
                    &#xa;
                    <mxGeometry x="240" y="170" width="70" height="30" as="geometry"/>
                    &#xa;
                </mxCell>
                &#xa;
                <mxCell id="mqlln7EPuW1ir5qae_5H-17" value="&lt;font style=&quot;font-size: 16px&quot;&gt;Account&lt;/font&gt;" style="text;html=1;align=center;verticalAlign=middle;resizable=0;points=[];autosize=1;fontStyle=1" parent="mqlln7EPuW1ir5qae_5H-1" vertex="1">
                    &#xa;
                    <mxGeometry x="235" y="140" width="80" height="20" as="geometry"/>
                    &#xa;
                </mxCell>
                &#xa;
                <mxCell id="mqlln7EPuW1ir5qae_5H-19" value="display_name" style="rounded=0;whiteSpace=wrap;html=1;fontSize=16;fillColor=#f5f5f5;strokeColor=#666666;fontColor=#333333;" parent="mqlln7EPuW1ir5qae_5H-1" vertex="1">
                    &#xa;
                    <mxGeometry x="310" y="170" width="120" height="30" as="geometry"/>
                    &#xa;
                </mxCell>
                &#xa;
                <mxCell id="mqlln7EPuW1ir5qae_5H-20" value="password" style="rounded=0;whiteSpace=wrap;html=1;fontSize=16;fillColor=#f5f5f5;strokeColor=#666666;fontColor=#333333;" parent="mqlln7EPuW1ir5qae_5H-1" vertex="1">
                    &#xa;
                    <mxGeometry x="430" y="170" width="90" height="30" as="geometry"/>
                    &#xa;
                </mxCell>
                &#xa;
                <mxCell id="mqlln7EPuW1ir5qae_5H-22" value="&lt;font style=&quot;font-size: 16px&quot;&gt;Profile&lt;/font&gt;" style="text;html=1;align=center;verticalAlign=middle;resizable=0;points=[];autosize=1;fontStyle=1" parent="mqlln7EPuW1ir5qae_5H-1" vertex="1">
                    &#xa;
                    <mxGeometry x="230" y="220" width="70" height="20" as="geometry"/>
                    &#xa;
                </mxCell>
                &#xa;
                <mxCell id="1JBA_TpLiSovp0A4fd09-1" value="creation_date" style="rounded=0;whiteSpace=wrap;html=1;fontSize=16;fillColor=#f5f5f5;strokeColor=#666666;fontColor=#333333;" parent="mqlln7EPuW1ir5qae_5H-1" vertex="1">
                    &#xa;
                    <mxGeometry x="520" y="170" width="120" height="30" as="geometry"/>
                    &#xa;
                </mxCell>
                &#xa;
                <mxCell id="x7om938RkSpqgUw9fLo1-0" value="&lt;u style=&quot;font-size: 16px&quot;&gt;email&lt;/u&gt;" style="rounded=0;whiteSpace=wrap;html=1;fontSize=16;fillColor=#f5f5f5;strokeColor=#666666;fontColor=#333333;" parent="mqlln7EPuW1ir5qae_5H-1" vertex="1">
                    &#xa;
                    <mxGeometry x="240" y="250" width="70" height="30" as="geometry"/>
                    &#xa;
                </mxCell>
                &#xa;
                <mxCell id="x7om938RkSpqgUw9fLo1-3" value="profile_picture" style="rounded=0;whiteSpace=wrap;html=1;fontSize=16;fillColor=#f5f5f5;strokeColor=#666666;fontColor=#333333;" parent="mqlln7EPuW1ir5qae_5H-1" vertex="1">
                    &#xa;
                    <mxGeometry x="310" y="250" width="120" height="30" as="geometry"/>
                    &#xa;
                </mxCell>
                &#xa;
                <mxCell id="x7om938RkSpqgUw9fLo1-4" value="badges" style="rounded=0;whiteSpace=wrap;html=1;fontSize=16;fillColor=#f5f5f5;strokeColor=#666666;fontColor=#333333;" parent="mqlln7EPuW1ir5qae_5H-1" vertex="1">
                    &#xa;
                    <mxGeometry x="430" y="250" width="80" height="30" as="geometry"/>
                    &#xa;
                </mxCell>
                &#xa;
                <mxCell id="x7om938RkSpqgUw9fLo1-5" value="points" style="rounded=0;whiteSpace=wrap;html=1;fontSize=16;fillColor=#f5f5f5;strokeColor=#666666;fontColor=#333333;" parent="mqlln7EPuW1ir5qae_5H-1" vertex="1">
                    &#xa;
                    <mxGeometry x="510" y="250" width="70" height="30" as="geometry"/>
                    &#xa;
                </mxCell>
                &#xa;
                <mxCell id="eBKP6wU9dLwB44KwhgF1-0" value="&lt;font style=&quot;font-size: 16px&quot;&gt;User&lt;/font&gt;" style="text;html=1;align=center;verticalAlign=middle;resizable=0;points=[];autosize=1;fontStyle=1" parent="mqlln7EPuW1ir5qae_5H-1" vertex="1">
                    &#xa;
                    <mxGeometry x="235" y="300" width="50" height="20" as="geometry"/>
                    &#xa;
                </mxCell>
                &#xa;
                <mxCell id="eBKP6wU9dLwB44KwhgF1-52" style="edgeStyle=orthogonalEdgeStyle;rounded=0;orthogonalLoop=1;jettySize=auto;html=1;exitX=0;exitY=0.5;exitDx=0;exitDy=0;entryX=0;entryY=0.5;entryDx=0;entryDy=0;startArrow=classic;startFill=1;endArrow=none;endFill=0;" parent="mqlln7EPuW1ir5qae_5H-1" source="eBKP6wU9dLwB44KwhgF1-1" target="eBKP6wU9dLwB44KwhgF1-41" edge="1">
                    &#xa;
                    <mxGeometry relative="1" as="geometry">
                        &#xa;
                        <Array as="points">
                            &#xa;
                            <mxPoint x="180" y="345"/>
                            &#xa;
                            <mxPoint x="180" y="1065"/>
                            &#xa;
                        </Array>
                        &#xa;
                    </mxGeometry>
                    &#xa;
                </mxCell>
                &#xa;
                <mxCell id="eBKP6wU9dLwB44KwhgF1-1" value="&lt;u style=&quot;font-size: 16px&quot;&gt;email&lt;/u&gt;" style="rounded=0;whiteSpace=wrap;html=1;fontSize=16;fillColor=#f5f5f5;strokeColor=#666666;fontColor=#333333;" parent="mqlln7EPuW1ir5qae_5H-1" vertex="1">
                    &#xa;
                    <mxGeometry x="240" y="330" width="70" height="30" as="geometry"/>
                    &#xa;
                </mxCell>
                &#xa;
                <mxCell id="eBKP6wU9dLwB44KwhgF1-2" value="display_name" style="rounded=0;whiteSpace=wrap;html=1;fontSize=16;fillColor=#f5f5f5;strokeColor=#666666;fontColor=#333333;" parent="mqlln7EPuW1ir5qae_5H-1" vertex="1">
                    &#xa;
                    <mxGeometry x="310" y="330" width="120" height="30" as="geometry"/>
                    &#xa;
                </mxCell>
                &#xa;
                <mxCell id="eBKP6wU9dLwB44KwhgF1-3" value="password" style="rounded=0;whiteSpace=wrap;html=1;fontSize=16;fillColor=#f5f5f5;strokeColor=#666666;fontColor=#333333;" parent="mqlln7EPuW1ir5qae_5H-1" vertex="1">
                    &#xa;
                    <mxGeometry x="430" y="330" width="80" height="30" as="geometry"/>
                    &#xa;
                </mxCell>
                &#xa;
                <mxCell id="eBKP6wU9dLwB44KwhgF1-4" value="creation_date" style="rounded=0;whiteSpace=wrap;html=1;fontSize=16;fillColor=#f5f5f5;strokeColor=#666666;fontColor=#333333;" parent="mqlln7EPuW1ir5qae_5H-1" vertex="1">
                    &#xa;
                    <mxGeometry x="510" y="330" width="120" height="30" as="geometry"/>
                    &#xa;
                </mxCell>
                &#xa;
                <mxCell id="eBKP6wU9dLwB44KwhgF1-10" value="&lt;font style=&quot;font-size: 16px&quot;&gt;Admin&lt;/font&gt;" style="text;html=1;align=center;verticalAlign=middle;resizable=0;points=[];autosize=1;fontStyle=1" parent="mqlln7EPuW1ir5qae_5H-1" vertex="1">
                    &#xa;
                    <mxGeometry x="235" y="380" width="70" height="20" as="geometry"/>
                    &#xa;
                </mxCell>
                &#xa;
                <mxCell id="eBKP6wU9dLwB44KwhgF1-51" style="edgeStyle=orthogonalEdgeStyle;rounded=0;orthogonalLoop=1;jettySize=auto;html=1;exitX=0;exitY=0.5;exitDx=0;exitDy=0;entryX=0.5;entryY=1;entryDx=0;entryDy=0;startArrow=classic;startFill=1;endArrow=none;endFill=0;" parent="mqlln7EPuW1ir5qae_5H-1" source="eBKP6wU9dLwB44KwhgF1-11" target="eBKP6wU9dLwB44KwhgF1-44" edge="1">
                    &#xa;
                    <mxGeometry relative="1" as="geometry">
                        &#xa;
                        <Array as="points">
                            &#xa;
                            <mxPoint x="170" y="425"/>
                            &#xa;
                            <mxPoint x="170" y="1170"/>
                            &#xa;
                            <mxPoint x="275" y="1170"/>
                            &#xa;
                        </Array>
                        &#xa;
                    </mxGeometry>
                    &#xa;
                </mxCell>
                &#xa;
                <mxCell id="eBKP6wU9dLwB44KwhgF1-11" value="&lt;u style=&quot;font-size: 16px&quot;&gt;email&lt;/u&gt;" style="rounded=0;whiteSpace=wrap;html=1;fontSize=16;fillColor=#f5f5f5;strokeColor=#666666;fontColor=#333333;" parent="mqlln7EPuW1ir5qae_5H-1" vertex="1">
                    &#xa;
                    <mxGeometry x="240" y="410" width="70" height="30" as="geometry"/>
                    &#xa;
                </mxCell>
                &#xa;
                <mxCell id="eBKP6wU9dLwB44KwhgF1-12" value="display_name" style="rounded=0;whiteSpace=wrap;html=1;fontSize=16;fillColor=#f5f5f5;strokeColor=#666666;fontColor=#333333;" parent="mqlln7EPuW1ir5qae_5H-1" vertex="1">
                    &#xa;
                    <mxGeometry x="310" y="410" width="120" height="30" as="geometry"/>
                    &#xa;
                </mxCell>
                &#xa;
                <mxCell id="eBKP6wU9dLwB44KwhgF1-13" value="password" style="rounded=0;whiteSpace=wrap;html=1;fontSize=16;fillColor=#f5f5f5;strokeColor=#666666;fontColor=#333333;" parent="mqlln7EPuW1ir5qae_5H-1" vertex="1">
                    &#xa;
                    <mxGeometry x="430" y="410" width="80" height="30" as="geometry"/>
                    &#xa;
                </mxCell>
                &#xa;
                <mxCell id="eBKP6wU9dLwB44KwhgF1-14" value="creation_date" style="rounded=0;whiteSpace=wrap;html=1;fontSize=16;fillColor=#f5f5f5;strokeColor=#666666;fontColor=#333333;" parent="mqlln7EPuW1ir5qae_5H-1" vertex="1">
                    &#xa;
                    <mxGeometry x="510" y="410" width="120" height="30" as="geometry"/>
                    &#xa;
                </mxCell>
                &#xa;
                <mxCell id="eBKP6wU9dLwB44KwhgF1-15" style="edgeStyle=orthogonalEdgeStyle;rounded=0;orthogonalLoop=1;jettySize=auto;html=1;exitX=0;exitY=0.5;exitDx=0;exitDy=0;entryX=0.5;entryY=1;entryDx=0;entryDy=0;endArrow=none;endFill=0;startArrow=classic;startFill=1;" parent="mqlln7EPuW1ir5qae_5H-1" source="mqlln7EPuW1ir5qae_5H-16" target="eBKP6wU9dLwB44KwhgF1-1" edge="1">
                    &#xa;
                    <mxGeometry relative="1" as="geometry">
                        &#xa;
                        <mxPoint x="250" y="194.9999999999999" as="sourcePoint"/>
                        &#xa;
                        <mxPoint x="250" y="315" as="targetPoint"/>
                        &#xa;
                        <Array as="points">
                            &#xa;
                            <mxPoint x="210" y="185"/>
                            &#xa;
                            <mxPoint x="210" y="370"/>
                            &#xa;
                            <mxPoint x="275" y="370"/>
                            &#xa;
                        </Array>
                        &#xa;
                    </mxGeometry>
                    &#xa;
                </mxCell>
                &#xa;
                <mxCell id="eBKP6wU9dLwB44KwhgF1-16" style="edgeStyle=orthogonalEdgeStyle;rounded=0;orthogonalLoop=1;jettySize=auto;html=1;entryX=0.5;entryY=1;entryDx=0;entryDy=0;endArrow=none;endFill=0;exitX=0;exitY=0.5;exitDx=0;exitDy=0;startArrow=classic;startFill=1;" parent="mqlln7EPuW1ir5qae_5H-1" source="mqlln7EPuW1ir5qae_5H-16" target="eBKP6wU9dLwB44KwhgF1-11" edge="1">
                    &#xa;
                    <mxGeometry relative="1" as="geometry">
                        &#xa;
                        <mxPoint x="240" y="180" as="sourcePoint"/>
                        &#xa;
                        <mxPoint x="179.97" y="419.98000000000013" as="targetPoint"/>
                        &#xa;
                        <Array as="points">
                            &#xa;
                            <mxPoint x="200" y="185"/>
                            &#xa;
                            <mxPoint x="200" y="450"/>
                            &#xa;
                            <mxPoint x="275" y="450"/>
                            &#xa;
                        </Array>
                        &#xa;
                    </mxGeometry>
                    &#xa;
                </mxCell>
                &#xa;
                <mxCell id="0OMtehA7uTMD51WE7sAf-0" value="&lt;font style=&quot;font-size: 16px&quot;&gt;Games&lt;/font&gt;" style="text;html=1;align=center;verticalAlign=middle;resizable=0;points=[];autosize=1;fontStyle=1" parent="mqlln7EPuW1ir5qae_5H-1" vertex="1">
                    &#xa;
                    <mxGeometry x="235" y="540" width="70" height="20" as="geometry"/>
                    &#xa;
                </mxCell>
                &#xa;
                <mxCell id="eBKP6wU9dLwB44KwhgF1-31" style="edgeStyle=orthogonalEdgeStyle;rounded=0;orthogonalLoop=1;jettySize=auto;html=1;exitX=0;exitY=0.5;exitDx=0;exitDy=0;entryX=0.5;entryY=1;entryDx=0;entryDy=0;startArrow=classic;startFill=1;endArrow=none;endFill=0;" parent="mqlln7EPuW1ir5qae_5H-1" source="0OMtehA7uTMD51WE7sAf-1" target="eBKP6wU9dLwB44KwhgF1-30" edge="1">
                    &#xa;
                    <mxGeometry relative="1" as="geometry">
                        &#xa;
                        <Array as="points">
                            &#xa;
                            <mxPoint x="200" y="585"/>
                            &#xa;
                            <mxPoint x="200" y="770"/>
                            &#xa;
                            <mxPoint x="280" y="770"/>
                            &#xa;
                        </Array>
                        &#xa;
                    </mxGeometry>
                    &#xa;
                </mxCell>
                &#xa;
                <mxCell id="eBKP6wU9dLwB44KwhgF1-48" style="edgeStyle=orthogonalEdgeStyle;rounded=0;orthogonalLoop=1;jettySize=auto;html=1;exitX=0;exitY=0.5;exitDx=0;exitDy=0;entryX=0.5;entryY=1;entryDx=0;entryDy=0;startArrow=classic;startFill=1;endArrow=none;endFill=0;" parent="mqlln7EPuW1ir5qae_5H-1" source="0OMtehA7uTMD51WE7sAf-1" target="eBKP6wU9dLwB44KwhgF1-42" edge="1">
                    &#xa;
                    <mxGeometry relative="1" as="geometry">
                        &#xa;
                        <Array as="points">
                            &#xa;
                            <mxPoint x="220" y="585"/>
                            &#xa;
                            <mxPoint x="220" y="1090"/>
                            &#xa;
                            <mxPoint x="348" y="1090"/>
                            &#xa;
                        </Array>
                        &#xa;
                    </mxGeometry>
                    &#xa;
                </mxCell>
                &#xa;
                <mxCell id="eBKP6wU9dLwB44KwhgF1-49" style="edgeStyle=orthogonalEdgeStyle;rounded=0;orthogonalLoop=1;jettySize=auto;html=1;exitX=0;exitY=0.5;exitDx=0;exitDy=0;entryX=0.5;entryY=1;entryDx=0;entryDy=0;startArrow=classic;startFill=1;endArrow=none;endFill=0;" parent="mqlln7EPuW1ir5qae_5H-1" source="0OMtehA7uTMD51WE7sAf-1" target="eBKP6wU9dLwB44KwhgF1-46" edge="1">
                    &#xa;
                    <mxGeometry relative="1" as="geometry">
                        &#xa;
                        <Array as="points">
                            &#xa;
                            <mxPoint x="190" y="585"/>
                            &#xa;
                            <mxPoint x="190" y="1180"/>
                            &#xa;
                            <mxPoint x="348" y="1180"/>
                            &#xa;
                        </Array>
                        &#xa;
                    </mxGeometry>
                    &#xa;
                </mxCell>
                &#xa;
                <mxCell id="0OMtehA7uTMD51WE7sAf-1" value="&lt;u style=&quot;font-size: 16px&quot;&gt;game_id&lt;/u&gt;" style="rounded=0;whiteSpace=wrap;html=1;fontSize=16;fillColor=#f5f5f5;strokeColor=#666666;fontColor=#333333;" parent="mqlln7EPuW1ir5qae_5H-1" vertex="1">
                    &#xa;
                    <mxGeometry x="240" y="570" width="90" height="30" as="geometry"/>
                    &#xa;
                </mxCell>
                &#xa;
                <mxCell id="0OMtehA7uTMD51WE7sAf-2" value="game_visiting" style="rounded=0;whiteSpace=wrap;html=1;fontSize=16;fillColor=#f5f5f5;strokeColor=#666666;fontColor=#333333;" parent="mqlln7EPuW1ir5qae_5H-1" vertex="1">
                    &#xa;
                    <mxGeometry x="330" y="570" width="110" height="30" as="geometry"/>
                    &#xa;
                </mxCell>
                &#xa;
                <mxCell id="0OMtehA7uTMD51WE7sAf-3" value="game_home" style="rounded=0;whiteSpace=wrap;html=1;fontSize=16;fillColor=#f5f5f5;strokeColor=#666666;fontColor=#333333;" parent="mqlln7EPuW1ir5qae_5H-1" vertex="1">
                    &#xa;
                    <mxGeometry x="440" y="570" width="110" height="30" as="geometry"/>
                    &#xa;
                </mxCell>
                &#xa;
                <mxCell id="0OMtehA7uTMD51WE7sAf-4" value="game_score" style="rounded=0;whiteSpace=wrap;html=1;fontSize=16;fillColor=#f5f5f5;strokeColor=#666666;fontColor=#333333;" parent="mqlln7EPuW1ir5qae_5H-1" vertex="1">
                    &#xa;
                    <mxGeometry x="550" y="570" width="120" height="30" as="geometry"/>
                    &#xa;
                </mxCell>
                &#xa;
                <mxCell id="eBKP6wU9dLwB44KwhgF1-17" value="&lt;font style=&quot;font-size: 16px&quot;&gt;Teams&lt;/font&gt;" style="text;html=1;align=center;verticalAlign=middle;resizable=0;points=[];autosize=1;fontStyle=1" parent="mqlln7EPuW1ir5qae_5H-1" vertex="1">
                    &#xa;
                    <mxGeometry x="240" y="460" width="60" height="20" as="geometry"/>
                    &#xa;
                </mxCell>
                &#xa;
                <mxCell id="eBKP6wU9dLwB44KwhgF1-29" style="edgeStyle=orthogonalEdgeStyle;rounded=0;orthogonalLoop=1;jettySize=auto;html=1;exitX=0;exitY=0.5;exitDx=0;exitDy=0;entryX=0.5;entryY=1;entryDx=0;entryDy=0;startArrow=classic;startFill=1;endArrow=none;endFill=0;" parent="mqlln7EPuW1ir5qae_5H-1" source="eBKP6wU9dLwB44KwhgF1-18" target="eBKP6wU9dLwB44KwhgF1-26" edge="1">
                    &#xa;
                    <mxGeometry relative="1" as="geometry">
                        &#xa;
                        <Array as="points">
                            &#xa;
                            <mxPoint x="220" y="505"/>
                            &#xa;
                            <mxPoint x="220" y="690"/>
                            &#xa;
                            <mxPoint x="350" y="690"/>
                            &#xa;
                        </Array>
                        &#xa;
                    </mxGeometry>
                    &#xa;
                </mxCell>
                &#xa;
                <mxCell id="eBKP6wU9dLwB44KwhgF1-56" style="edgeStyle=orthogonalEdgeStyle;rounded=0;orthogonalLoop=1;jettySize=auto;html=1;exitX=0;exitY=0.5;exitDx=0;exitDy=0;entryX=0.5;entryY=1;entryDx=0;entryDy=0;startArrow=classic;startFill=1;endArrow=none;endFill=0;" parent="mqlln7EPuW1ir5qae_5H-1" source="eBKP6wU9dLwB44KwhgF1-18" target="eBKP6wU9dLwB44KwhgF1-55" edge="1">
                    &#xa;
                    <mxGeometry relative="1" as="geometry">
                        &#xa;
                        <Array as="points">
                            &#xa;
                            <mxPoint x="210" y="505"/>
                            &#xa;
                            <mxPoint x="210" y="1010"/>
                            &#xa;
                            <mxPoint x="405" y="1010"/>
                            &#xa;
                        </Array>
                        &#xa;
                    </mxGeometry>
                    &#xa;
                </mxCell>
                &#xa;
                <mxCell id="eBKP6wU9dLwB44KwhgF1-18" value="&lt;u style=&quot;font-size: 16px&quot;&gt;team_name&lt;/u&gt;" style="rounded=0;whiteSpace=wrap;html=1;fontSize=16;fillColor=#f5f5f5;strokeColor=#666666;fontColor=#333333;" parent="mqlln7EPuW1ir5qae_5H-1" vertex="1">
                    &#xa;
                    <mxGeometry x="240" y="490" width="110" height="30" as="geometry"/>
                    &#xa;
                </mxCell>
                &#xa;
                <mxCell id="OSje5FZzfrNVk_2zFvxF-1" value="&lt;font style=&quot;font-size: 16px&quot;&gt;Point Shop&lt;br&gt;&lt;/font&gt;" style="text;html=1;align=center;verticalAlign=middle;resizable=0;points=[];autosize=1;fontStyle=1" parent="mqlln7EPuW1ir5qae_5H-1" vertex="1">
                    &#xa;
                    <mxGeometry x="235" y="780" width="100" height="20" as="geometry"/>
                    &#xa;
                </mxCell>
                &#xa;
                <mxCell id="eBKP6wU9dLwB44KwhgF1-19" value="win_loss_record" style="rounded=0;whiteSpace=wrap;html=1;fontSize=16;fillColor=#f5f5f5;strokeColor=#666666;fontColor=#333333;" parent="mqlln7EPuW1ir5qae_5H-1" vertex="1">
                    &#xa;
                    <mxGeometry x="350" y="490" width="125" height="30" as="geometry"/>
                    &#xa;
                </mxCell>
                &#xa;
                <mxCell id="OSje5FZzfrNVk_2zFvxF-2" value="&lt;u&gt;type&lt;/u&gt;" style="rounded=0;whiteSpace=wrap;html=1;fontSize=16;fillColor=#f5f5f5;strokeColor=#666666;fontColor=#333333;" parent="mqlln7EPuW1ir5qae_5H-1" vertex="1">
                    &#xa;
                    <mxGeometry x="240" y="810" width="60" height="30" as="geometry"/>
                    &#xa;
                </mxCell>
                &#xa;
                <mxCell id="eBKP6wU9dLwB44KwhgF1-20" value="injured_list" style="rounded=0;whiteSpace=wrap;html=1;fontSize=16;fillColor=#f5f5f5;strokeColor=#666666;fontColor=#333333;" parent="mqlln7EPuW1ir5qae_5H-1" vertex="1">
                    &#xa;
                    <mxGeometry x="475" y="490" width="90" height="30" as="geometry"/>
                    &#xa;
                </mxCell>
                &#xa;
                <mxCell id="OSje5FZzfrNVk_2zFvxF-3" value="merchandise" style="rounded=0;whiteSpace=wrap;html=1;fontSize=16;fillColor=#f5f5f5;strokeColor=#666666;fontColor=#333333;" parent="mqlln7EPuW1ir5qae_5H-1" vertex="1">
                    &#xa;
                    <mxGeometry x="300" y="810" width="110" height="30" as="geometry"/>
                    &#xa;
                </mxCell>
                &#xa;
                <mxCell id="eBKP6wU9dLwB44KwhgF1-21" value="offensive_rating" style="rounded=0;whiteSpace=wrap;html=1;fontSize=16;fillColor=#f5f5f5;strokeColor=#666666;fontColor=#333333;" parent="mqlln7EPuW1ir5qae_5H-1" vertex="1">
                    &#xa;
                    <mxGeometry x="565" y="490" width="130" height="30" as="geometry"/>
                    &#xa;
                </mxCell>
                &#xa;
                <mxCell id="eBKP6wU9dLwB44KwhgF1-23" value="defensive_rating" style="rounded=0;whiteSpace=wrap;html=1;fontSize=16;fillColor=#f5f5f5;strokeColor=#666666;fontColor=#333333;" parent="mqlln7EPuW1ir5qae_5H-1" vertex="1">
                    &#xa;
                    <mxGeometry x="695" y="490" width="130" height="30" as="geometry"/>
                    &#xa;
                </mxCell>
                &#xa;
                <mxCell id="eBKP6wU9dLwB44KwhgF1-24" value="&lt;font style=&quot;font-size: 16px&quot;&gt;Standings&lt;/font&gt;" style="text;html=1;align=center;verticalAlign=middle;resizable=0;points=[];autosize=1;fontStyle=1" parent="mqlln7EPuW1ir5qae_5H-1" vertex="1">
                    &#xa;
                    <mxGeometry x="235" y="620" width="90" height="20" as="geometry"/>
                    &#xa;
                </mxCell>
                &#xa;
                <mxCell id="eBKP6wU9dLwB44KwhgF1-25" value="&lt;u style=&quot;font-size: 16px&quot;&gt;rank&lt;/u&gt;" style="rounded=0;whiteSpace=wrap;html=1;fontSize=16;fillColor=#f5f5f5;strokeColor=#666666;fontColor=#333333;" parent="mqlln7EPuW1ir5qae_5H-1" vertex="1">
                    &#xa;
                    <mxGeometry x="240" y="650" width="60" height="30" as="geometry"/>
                    &#xa;
                </mxCell>
                &#xa;
                <mxCell id="eBKP6wU9dLwB44KwhgF1-28" style="edgeStyle=orthogonalEdgeStyle;rounded=0;orthogonalLoop=1;jettySize=auto;html=1;exitX=0.5;exitY=1;exitDx=0;exitDy=0;" parent="mqlln7EPuW1ir5qae_5H-1" source="eBKP6wU9dLwB44KwhgF1-26" edge="1">
                    &#xa;
                    <mxGeometry relative="1" as="geometry">
                        &#xa;
                        <mxPoint x="350.0344827586207" y="670.2068965517242" as="targetPoint"/>
                        &#xa;
                    </mxGeometry>
                    &#xa;
                </mxCell>
                &#xa;
                <mxCell id="eBKP6wU9dLwB44KwhgF1-26" value="&lt;u&gt;team_name&lt;/u&gt;" style="rounded=0;whiteSpace=wrap;html=1;fontSize=16;fillColor=#f5f5f5;strokeColor=#666666;fontColor=#333333;" parent="mqlln7EPuW1ir5qae_5H-1" vertex="1">
                    &#xa;
                    <mxGeometry x="300" y="650" width="100" height="30" as="geometry"/>
                    &#xa;
                </mxCell>
                &#xa;
                <mxCell id="8-6jnH4hZlNLff9_MoSE-0" value="&lt;font style=&quot;font-size: 16px&quot;&gt;Schedule&lt;/font&gt;" style="text;html=1;align=center;verticalAlign=middle;resizable=0;points=[];autosize=1;fontStyle=1" parent="mqlln7EPuW1ir5qae_5H-1" vertex="1">
                    &#xa;
                    <mxGeometry x="230" y="700" width="90" height="20" as="geometry"/>
                    &#xa;
                </mxCell>
                &#xa;
                <mxCell id="8-6jnH4hZlNLff9_MoSE-1" value="&lt;span style=&quot;font-size: 16px&quot;&gt;location&lt;/span&gt;" style="rounded=0;whiteSpace=wrap;html=1;fontSize=16;fillColor=#f5f5f5;strokeColor=#666666;fontColor=#333333;" parent="mqlln7EPuW1ir5qae_5H-1" vertex="1">
                    &#xa;
                    <mxGeometry x="320" y="730" width="80" height="30" as="geometry"/>
                    &#xa;
                </mxCell>
                &#xa;
                <mxCell id="8-6jnH4hZlNLff9_MoSE-2" value="tv_network" style="rounded=0;whiteSpace=wrap;html=1;fontSize=16;fillColor=#f5f5f5;strokeColor=#666666;fontColor=#333333;" parent="mqlln7EPuW1ir5qae_5H-1" vertex="1">
                    &#xa;
                    <mxGeometry x="400" y="730" width="100" height="30" as="geometry"/>
                    &#xa;
                </mxCell>
                &#xa;
                <mxCell id="eBKP6wU9dLwB44KwhgF1-27" value="sorting_method" style="rounded=0;whiteSpace=wrap;html=1;fontSize=16;fillColor=#f5f5f5;strokeColor=#666666;fontColor=#333333;" parent="mqlln7EPuW1ir5qae_5H-1" vertex="1">
                    &#xa;
                    <mxGeometry x="400" y="650" width="120" height="30" as="geometry"/>
                    &#xa;
                </mxCell>
                &#xa;
                <mxCell id="RBhK65gHsCAp7IKqFm0b-0" value="time" style="rounded=0;whiteSpace=wrap;html=1;fontSize=16;fillColor=#f5f5f5;strokeColor=#666666;fontColor=#333333;" parent="mqlln7EPuW1ir5qae_5H-1" vertex="1">
                    &#xa;
                    <mxGeometry x="500" y="730" width="55" height="30" as="geometry"/>
                    &#xa;
                </mxCell>
                &#xa;
                <mxCell id="QRXk_ljC9BwseJ4I5Cnh-0" value="&lt;u&gt;type&lt;/u&gt;" style="rounded=0;whiteSpace=wrap;html=1;fontSize=16;fillColor=#f5f5f5;strokeColor=#666666;fontColor=#333333;" parent="mqlln7EPuW1ir5qae_5H-1" vertex="1">
                    &#xa;
                    <mxGeometry x="240" y="890" width="60" height="30" as="geometry"/>
                    &#xa;
                </mxCell>
                &#xa;
                <mxCell id="QRXk_ljC9BwseJ4I5Cnh-1" value="&lt;font style=&quot;font-size: 16px&quot;&gt;Leaderboard&lt;br&gt;&lt;/font&gt;" style="text;html=1;align=center;verticalAlign=middle;resizable=0;points=[];autosize=1;fontStyle=1" parent="mqlln7EPuW1ir5qae_5H-1" vertex="1">
                    &#xa;
                    <mxGeometry x="240" y="860" width="110" height="20" as="geometry"/>
                    &#xa;
                </mxCell>
                &#xa;
                <mxCell id="QRXk_ljC9BwseJ4I5Cnh-2" value="display_name" style="rounded=0;whiteSpace=wrap;html=1;fontSize=16;fillColor=#f5f5f5;strokeColor=#666666;fontColor=#333333;" parent="mqlln7EPuW1ir5qae_5H-1" vertex="1">
                    &#xa;
                    <mxGeometry x="300" y="890" width="120" height="30" as="geometry"/>
                    &#xa;
                </mxCell>
                &#xa;
                <mxCell id="eBKP6wU9dLwB44KwhgF1-30" value="&lt;span style=&quot;font-size: 16px&quot;&gt;&lt;u&gt;game_id&lt;/u&gt;&lt;/span&gt;" style="rounded=0;whiteSpace=wrap;html=1;fontSize=16;fillColor=#f5f5f5;strokeColor=#666666;fontColor=#333333;" parent="mqlln7EPuW1ir5qae_5H-1" vertex="1">
                    &#xa;
                    <mxGeometry x="240" y="730" width="80" height="30" as="geometry"/>
                    &#xa;
                </mxCell>
                &#xa;
                <mxCell id="zkf6rMRdbZkyfB-n7_bk-0" value="&lt;font style=&quot;font-size: 16px&quot;&gt;Players&lt;/font&gt;" style="text;html=1;align=center;verticalAlign=middle;resizable=0;points=[];autosize=1;fontStyle=1" parent="mqlln7EPuW1ir5qae_5H-1" vertex="1">
                    &#xa;
                    <mxGeometry x="235" y="940" width="70" height="20" as="geometry"/>
                    &#xa;
                </mxCell>
                &#xa;
                <mxCell id="zkf6rMRdbZkyfB-n7_bk-1" value="&lt;u style=&quot;font-size: 16px&quot;&gt;player_id&lt;/u&gt;" style="rounded=0;whiteSpace=wrap;html=1;fontSize=16;fillColor=#f5f5f5;strokeColor=#666666;fontColor=#333333;" parent="mqlln7EPuW1ir5qae_5H-1" vertex="1">
                    &#xa;
                    <mxGeometry x="240" y="970" width="110" height="30" as="geometry"/>
                    &#xa;
                </mxCell>
                &#xa;
                <mxCell id="zkf6rMRdbZkyfB-n7_bk-4" value="player_stats" style="rounded=0;whiteSpace=wrap;html=1;fontSize=16;fillColor=#f5f5f5;strokeColor=#666666;fontColor=#333333;" parent="mqlln7EPuW1ir5qae_5H-1" vertex="1">
                    &#xa;
                    <mxGeometry x="650" y="970" width="115" height="30" as="geometry"/>
                    &#xa;
                </mxCell>
                &#xa;
                <mxCell id="eBKP6wU9dLwB44KwhgF1-40" value="&lt;font style=&quot;font-size: 16px&quot;&gt;Votes&lt;/font&gt;" style="text;html=1;align=center;verticalAlign=middle;resizable=0;points=[];autosize=1;fontStyle=1" parent="mqlln7EPuW1ir5qae_5H-1" vertex="1">
                    &#xa;
                    <mxGeometry x="235" y="1020" width="60" height="20" as="geometry"/>
                    &#xa;
                </mxCell>
                &#xa;
                <mxCell id="eBKP6wU9dLwB44KwhgF1-41" value="&lt;u style=&quot;font-size: 16px&quot;&gt;email&lt;/u&gt;" style="rounded=0;whiteSpace=wrap;html=1;fontSize=16;fillColor=#f5f5f5;strokeColor=#666666;fontColor=#333333;" parent="mqlln7EPuW1ir5qae_5H-1" vertex="1">
                    &#xa;
                    <mxGeometry x="240" y="1050" width="70" height="30" as="geometry"/>
                    &#xa;
                </mxCell>
                &#xa;
                <mxCell id="eBKP6wU9dLwB44KwhgF1-42" value="&lt;u&gt;game_id&lt;/u&gt;" style="rounded=0;whiteSpace=wrap;html=1;fontSize=16;fillColor=#f5f5f5;strokeColor=#666666;fontColor=#333333;" parent="mqlln7EPuW1ir5qae_5H-1" vertex="1">
                    &#xa;
                    <mxGeometry x="310" y="1050" width="75" height="30" as="geometry"/>
                    &#xa;
                </mxCell>
                &#xa;
                <mxCell id="eBKP6wU9dLwB44KwhgF1-43" value="&lt;font style=&quot;font-size: 16px&quot;&gt;Edits&lt;/font&gt;" style="text;html=1;align=center;verticalAlign=middle;resizable=0;points=[];autosize=1;fontStyle=1" parent="mqlln7EPuW1ir5qae_5H-1" vertex="1">
                    &#xa;
                    <mxGeometry x="235" y="1100" width="50" height="20" as="geometry"/>
                    &#xa;
                </mxCell>
                &#xa;
                <mxCell id="eBKP6wU9dLwB44KwhgF1-44" value="&lt;u style=&quot;font-size: 16px&quot;&gt;email&lt;/u&gt;" style="rounded=0;whiteSpace=wrap;html=1;fontSize=16;fillColor=#f5f5f5;strokeColor=#666666;fontColor=#333333;" parent="mqlln7EPuW1ir5qae_5H-1" vertex="1">
                    &#xa;
                    <mxGeometry x="240" y="1130" width="70" height="30" as="geometry"/>
                    &#xa;
                </mxCell>
                &#xa;
                <mxCell id="eBKP6wU9dLwB44KwhgF1-46" value="&lt;u&gt;game_id&lt;/u&gt;" style="rounded=0;whiteSpace=wrap;html=1;fontSize=16;fillColor=#f5f5f5;strokeColor=#666666;fontColor=#333333;" parent="mqlln7EPuW1ir5qae_5H-1" vertex="1">
                    &#xa;
                    <mxGeometry x="310" y="1130" width="75" height="30" as="geometry"/>
                    &#xa;
                </mxCell>
                &#xa;
                <mxCell id="eBKP6wU9dLwB44KwhgF1-47" value="chosen_team" style="rounded=0;whiteSpace=wrap;html=1;fontSize=16;fillColor=#f5f5f5;strokeColor=#666666;fontColor=#333333;" parent="mqlln7EPuW1ir5qae_5H-1" vertex="1">
                    &#xa;
                    <mxGeometry x="385" y="1050" width="105" height="30" as="geometry"/>
                    &#xa;
                </mxCell>
                &#xa;
                <mxCell id="eBKP6wU9dLwB44KwhgF1-53" value="first_name" style="rounded=0;whiteSpace=wrap;html=1;fontSize=16;fillColor=#f5f5f5;strokeColor=#666666;fontColor=#333333;" parent="mqlln7EPuW1ir5qae_5H-1" vertex="1">
                    &#xa;
                    <mxGeometry x="460" y="970" width="100" height="30" as="geometry"/>
                    &#xa;
                </mxCell>
                &#xa;
                <mxCell id="eBKP6wU9dLwB44KwhgF1-54" value="last_name" style="rounded=0;whiteSpace=wrap;html=1;fontSize=16;fillColor=#f5f5f5;strokeColor=#666666;fontColor=#333333;" parent="mqlln7EPuW1ir5qae_5H-1" vertex="1">
                    &#xa;
                    <mxGeometry x="560" y="970" width="90" height="30" as="geometry"/>
                    &#xa;
                </mxCell>
                &#xa;
                <mxCell id="eBKP6wU9dLwB44KwhgF1-55" value="&lt;u style=&quot;font-size: 16px&quot;&gt;team_name&lt;/u&gt;" style="rounded=0;whiteSpace=wrap;html=1;fontSize=16;fillColor=#f5f5f5;strokeColor=#666666;fontColor=#333333;" parent="mqlln7EPuW1ir5qae_5H-1" vertex="1">
                    &#xa;
                    <mxGeometry x="350" y="970" width="110" height="30" as="geometry"/>
                    &#xa;
                </mxCell>
                &#xa;
            </root>
            &#xa;
        </mxGraphModel>
        &#xa;
    </diagram>
</mxfile>